# Blender 3.5.0
# www.blender.org
g Dumpster
v 1.114344 0.000000 0.948051
v 1.601961 1.441607 0.948051
v -1.114344 -0.000000 0.948051
v -1.601961 1.441607 0.948051
v 1.114344 0.000000 -0.948051
v 1.601961 1.441607 -0.948051
v -1.114344 -0.000000 -0.948051
v -1.601961 1.441607 -0.948051
v 2.031905 0.902454 0.948051
v -2.031905 0.902454 0.948051
v -2.031905 0.902454 -0.948051
v 2.031905 0.902454 -0.948051
v -1.114344 -0.000000 -0.901966
v -1.601961 1.441607 -0.901966
v 1.114344 0.000000 -0.901966
v 2.031905 0.902454 -0.901966
v -2.031905 0.902454 -0.901966
v -1.114344 -0.000000 0.904212
v 2.031905 0.902454 0.904212
v -1.601961 1.441607 0.904212
v 1.114344 0.000000 0.904212
v -2.031905 0.902454 0.904212
v 1.974230 0.974779 0.948051
v -1.974230 0.974779 0.948051
v -1.974230 0.974779 -0.948051
v 1.974230 0.974779 -0.948051
v 1.974230 0.974779 -0.901966
v -1.974230 0.974779 0.904212
v 1.974230 0.974779 0.904212
v -1.099267 0.050908 0.904212
v -1.099267 0.050908 -0.901966
v 1.099267 0.050908 -0.901966
v 1.099267 0.050908 0.904212
v -1.974230 0.974779 -0.901966
v 1.601961 1.441607 -0.901966
v 1.601961 1.441607 0.904212
vn -0.0000 -0.0000 1.0000
vn -0.7818 0.6235 -0.0000
vn -0.0000 -0.0000 -1.0000
vn 0.7818 0.6235 -0.0000
vn -0.0000 -1.0000 -0.0000
vn -0.0000 1.0000 -0.0000
vn 0.7012 -0.7130 -0.0000
vn -0.7012 -0.7130 -0.0000
vn -0.7261 0.6876 -0.0000
vn 0.7261 0.6876 -0.0000
vt 0.375000 1.000000
vt 0.375000 0.000000
vt 0.125000 0.750000
vt 0.625000 0.000000
vt 0.625000 1.000000
vt 0.875000 0.750000
vt 0.125000 0.500000
vt 0.375000 0.250000
vt 0.875000 0.500000
vt 0.625000 0.250000
vt 0.375000 0.750000
vt 0.625000 0.750000
vt 0.375000 0.500000
vt 0.625000 0.500000
vt 0.531501 1.000000
vt 0.531501 0.000000
vt 0.531501 0.250000
vt 0.531501 0.500000
vt 0.531501 0.750000
vt 0.375000 0.493924
vt 0.368924 0.500000
vt 0.631076 0.500000
vt 0.625000 0.493924
vt 0.368924 0.750000
vt 0.375000 0.756076
vt 0.531501 0.756076
vt 0.531501 0.493924
vt 0.130780 0.500000
vt 0.375000 0.255780
vt 0.531501 0.994220
vt 0.625000 0.255780
vt 0.869220 0.500000
vt 0.130780 0.750000
vt 0.375000 0.994220
vt 0.531501 0.255780
vt 0.544044 1.000000
vt 0.544044 0.000000
vt 0.544044 0.250000
vt 0.544044 0.500000
vt 0.544044 0.750000
vt 0.544044 0.756076
vt 0.544044 0.255780
vt 0.544044 0.994220
vt 0.625000 0.255780
vt 0.869220 0.500000
vt 0.625000 0.493924
vt 0.631076 0.500000
vt 0.631076 0.750000
vt 0.625000 0.756076
vt 0.000000 0.000000
vt 0.000000 0.000000
vt 0.625000 0.994220
vt 0.869220 0.750000
vt 0.544044 0.493924
vt 0.631076 0.750000
vt 0.625000 0.756076
vt 0.869220 0.750000
vt 0.625000 0.994220
s 0
f 23/37/1 2/4/1 4/10/1 24/38/1
f 34/54/2 14/23/2 8/14/2 25/39/2
f 25/39/3 8/14/3 6/12/3 26/40/3
f 29/43/4 36/58/4 2/5/4 23/36/4
f 13/21/5 7/13/5 5/11/5 15/24/5
f 20/32/6 4/9/6 2/6/6 36/57/6
f 21/34/7 19/30/7 9/15/7 1/1/7
f 7/13/3 11/18/3 12/19/3 5/11/3
f 13/20/8 17/27/8 11/18/8 7/13/8
f 1/2/1 9/16/1 10/17/1 3/8/1
f 18/29/8 22/35/8 17/27/8 13/20/8
f 5/11/7 12/19/7 16/26/7 15/25/7
f 8/14/6 14/22/6 35/55/6 6/12/6
f 18/28/5 13/21/5 15/24/5 21/33/5
f 26/40/4 6/12/4 35/56/4 27/41/4
f 35/55/1 14/22/1 31/47/1 32/48/1
f 24/38/2 4/10/2 20/31/2 28/42/2
f 3/7/5 18/28/5 21/33/5 1/3/5
f 3/8/8 10/17/8 22/35/8 18/29/8
f 15/25/7 16/26/7 19/30/7 21/34/7
f 28/42/3 20/31/3 30/44/3
f 16/26/4 27/41/4 29/43/4 19/30/4
f 10/17/2 24/38/2 28/42/2 22/35/2
f 22/35/2 28/42/2 34/54/2 17/27/2
f 12/19/4 26/40/4 27/41/4 16/26/4
f 19/30/4 29/43/4 23/36/4 9/15/4
f 11/18/3 25/39/3 26/40/3 12/19/3
f 17/27/2 34/54/2 25/39/2 11/18/2
f 9/16/1 23/37/1 24/38/1 10/17/1
f 27/41/9 32/50/9 33/51/9 29/43/9
f 27/41/1 35/56/1 32/49/1
f 20/32/3 36/57/3 33/53/3 30/45/3
f 36/58/3 29/43/3 33/52/3
f 14/23/1 34/54/1 31/46/1
f 31/47/10 34/54/10 28/42/10 30/45/10
f 31/47/6 30/45/6 33/53/6 32/50/6
