# Blender 3.5.0
# www.blender.org
g Station_Office_3
v 3.300022 1.899999 -6.329988
v 3.300022 4.944398 -6.329988
v -0.849999 7.028484 -6.329988
v -2.999989 9.105278 -6.329988
v -0.849999 8.027094 -6.329988
v -5.299923 7.954469 -6.329988
v -5.299923 1.899999 -6.329988
v 3.300022 4.944398 -6.329988
v 3.300022 1.899999 -6.329988
v 3.300024 1.900000 6.330002
v 3.300024 4.944399 6.330001
v 3.300024 4.944399 6.330001
v 3.300024 1.900000 6.330002
v -0.849994 7.028485 6.330001
v -2.999985 9.105280 6.330001
v -0.849994 8.027096 6.330001
v -5.299919 7.954470 6.330001
v -5.299919 1.900000 6.330002
v -2.999985 9.105280 6.330001
v -2.999989 9.105278 -6.329988
v -0.849999 8.027094 -6.329988
v -0.849994 8.027096 6.330001
v -5.299919 7.954470 6.330001
v -5.299923 7.954469 -6.329988
v -2.999989 9.105278 -6.329988
v -2.999985 9.105280 6.330001
v -6.999977 0.000000 7.999985
v -6.999977 2.000001 7.999985
v 7.000021 2.000001 7.999984
v 7.000021 0.000000 7.999984
v -0.849994 8.027096 6.330001
v -0.849999 8.027094 -6.329988
v -0.849999 7.028484 -6.329988
v -0.849994 7.028485 6.330001
v 7.000019 1.999999 -7.999987
v 7.000019 -0.000001 -7.999987
v 7.000021 0.000000 7.999984
v 7.000021 2.000001 7.999984
v -5.299919 7.954470 6.330001
v -5.299919 1.900000 6.330002
v -5.299923 1.899999 -6.329988
v -5.299923 7.954469 -6.329988
v -6.999977 2.000001 7.999985
v -6.999977 0.000000 7.999985
v -6.999981 -0.000001 -7.999986
v -6.999981 1.999999 -7.999986
v -0.849994 7.028485 6.330001
v -0.849999 7.028484 -6.329988
v 3.300022 4.944398 -6.329988
v 3.300024 4.944399 6.330001
v -6.999977 2.000001 7.999985
v -6.999981 1.999999 -7.999986
v 7.000019 1.999999 -7.999987
v 7.000021 2.000001 7.999984
v 7.000019 1.999999 -7.999987
v -6.999981 1.999999 -7.999986
v -6.999981 -0.000001 -7.999986
v 7.000019 -0.000001 -7.999987
vn -0.4475 0.8943 -0.0000
vn 0.4488 0.8936 -0.0000
vn -1.0000 -0.0000 -0.0000
vn -0.0000 -0.0000 1.0000
vn 1.0000 -0.0000 -0.0000
vn 0.4483 0.8939 -0.0000
vn -0.0000 -0.0000 -1.0000
vn -0.0000 1.0000 -0.0000
vt 0.361821 0.863352
vt 0.366986 0.863352
vt 0.370522 0.856311
vt 0.374046 0.852663
vt 0.372217 0.856311
vt 0.372093 0.848761
vt 0.361821 0.848761
vt 0.373478 0.819142
vt 0.373478 0.813977
vt 0.351998 0.813977
vt 0.351998 0.819142
vt 0.355809 0.863352
vt 0.360974 0.863352
vt 0.352273 0.856311
vt 0.348749 0.852663
vt 0.350579 0.856311
vt 0.350702 0.848761
vt 0.360974 0.848761
vt 0.351998 0.832797
vt 0.373478 0.832797
vt 0.373478 0.828716
vt 0.351998 0.828716
vt 0.351998 0.837160
vt 0.373478 0.837160
vt 0.373478 0.832797
vt 0.351998 0.832797
vt 0.339859 0.871793
vt 0.341217 0.871793
vt 0.341217 0.862292
vt 0.339859 0.862292
vt 0.351998 0.828716
vt 0.373478 0.828716
vt 0.373478 0.827021
vt 0.351998 0.827021
vt 0.352075 0.862292
vt 0.352075 0.860935
vt 0.341217 0.860935
vt 0.341217 0.862292
vt 0.351998 0.837160
vt 0.351998 0.847432
vt 0.373478 0.847432
vt 0.373478 0.837160
vt 0.341217 0.871793
vt 0.341217 0.873151
vt 0.352075 0.873151
vt 0.352075 0.871793
vt 0.351998 0.827021
vt 0.373478 0.827021
vt 0.373478 0.819142
vt 0.351998 0.819142
vt 0.341217 0.871793
vt 0.352075 0.871793
vt 0.352075 0.862292
vt 0.341217 0.862292
vt 0.352075 0.862292
vt 0.352075 0.871793
vt 0.353433 0.871793
vt 0.353433 0.862292
s 0
f 26/26/1 25/25/1 24/24/1 23/23/1
f 50/50/2 49/49/2 48/48/2 47/47/2
f 42/42/3 41/41/3 40/40/3 39/39/3
f 46/46/3 45/45/3 44/44/3 43/43/3
f 17/17/4 18/18/4 13/13/4 12/12/4 14/14/4 16/16/4 15/15/4
f 30/30/4 29/29/4 28/28/4 27/27/4
f 38/38/5 37/37/5 36/36/5 35/35/5
f 22/22/6 21/21/6 20/20/6 19/19/6
f 11/11/5 10/10/5 9/9/5 8/8/5
f 34/34/5 33/33/5 32/32/5 31/31/5
f 58/58/7 57/57/7 56/56/7 55/55/7
f 3/3/7 2/2/7 1/1/7 7/7/7 6/6/7 4/4/7 5/5/7
f 54/54/8 53/53/8 52/52/8 51/51/8
