# Blender 3.5.0
# www.blender.org
g Station_Office_7
v -5.099992 4.935236 -6.100068
v -5.099992 1.899999 -6.100067
v -3.050000 6.020259 -6.100068
v -0.900010 4.935236 -6.100068
v -0.900010 1.899999 -6.100067
v -7.000000 2.000001 7.999985
v -7.000000 0.000000 7.999985
v -7.000001 -0.000001 -8.000015
v -7.000001 1.999999 -8.000015
v 7.000000 2.000001 7.999984
v 0.999999 2.000000 -4.000046
v 6.999999 2.000000 -4.000046
v -7.000000 2.000001 7.999985
v -7.000001 1.999999 -8.000015
v 0.999999 1.999999 -8.000015
v -0.900010 4.935236 -6.100068
v -0.900010 1.899999 -6.100067
v -0.900010 1.900000 -2.100044
v -0.900010 4.935237 -2.100044
v -3.050000 6.020259 -6.100068
v -0.900010 4.935236 -6.100068
v -0.900010 4.935237 -2.100044
v -3.050000 6.020260 -2.100044
v -5.099991 4.935237 -2.100044
v -5.099992 4.935236 -6.100068
v -3.050000 6.020259 -6.100068
v -3.050000 6.020260 -2.100044
v 3.100006 4.935237 6.099990
v 3.100006 1.900000 6.099991
v -1.000007 7.105282 6.099990
v -5.099990 4.935237 6.099990
v -5.099990 1.900000 6.099991
v 3.100005 1.900000 -2.100044
v -0.900010 4.935237 -2.100044
v -0.900010 1.900000 -2.100044
v 3.100005 4.935237 -2.100044
v -1.000009 7.105282 -2.100044
v -3.050000 6.020260 -2.100044
v 3.100005 4.935237 -2.100044
v 3.100005 1.900000 -2.100044
v 3.100006 1.900000 6.099991
v 3.100006 4.935237 6.099990
v -5.099991 4.935237 -2.100044
v -5.099991 1.900000 -2.100044
v -5.099992 1.899999 -6.100067
v -5.099992 4.935236 -6.100068
v -7.000000 0.000000 7.999985
v -7.000000 2.000001 7.999985
v 7.000000 2.000001 7.999984
v 7.000000 0.000000 7.999984
v 0.999999 2.000000 -4.000046
v 0.999999 1.999999 -8.000015
v 0.999998 -0.000001 -8.000015
v 0.999999 -0.000001 -4.000046
v -1.000009 7.105282 -2.100044
v -1.000007 7.105282 6.099990
v -5.099990 4.935237 6.099990
v -5.099991 4.935237 -2.100044
v 0.999999 1.999999 -8.000015
v -7.000001 1.999999 -8.000015
v -7.000001 -0.000001 -8.000015
v 0.999998 -0.000001 -8.000015
v -1.000007 7.105282 6.099990
v -1.000009 7.105282 -2.100044
v 3.100005 4.935237 -2.100044
v 3.100006 4.935237 6.099990
v 6.999999 -0.000001 -4.000046
v 6.999999 2.000000 -4.000046
v 0.999999 2.000000 -4.000046
v 0.999999 -0.000001 -4.000046
v -5.099990 4.935237 6.099990
v -5.099990 1.900000 6.099991
v -5.099991 1.900000 -2.100044
v -5.099991 4.935237 -2.100044
v 6.999999 2.000000 -4.000046
v 6.999999 -0.000001 -4.000046
v 7.000000 0.000000 7.999984
v 7.000000 2.000001 7.999984
vn 1.0000 -0.0000 -0.0000
vn -0.0000 1.0000 -0.0000
vn -0.0000 -0.0000 -1.0000
vn 0.4505 0.8928 -0.0000
vn -1.0000 -0.0000 -0.0000
vn -0.4678 0.8838 -0.0000
vn -0.0000 -0.0000 1.0000
vn 0.4678 0.8838 -0.0000
vt 0.408907 0.866386
vt 0.408907 0.872909
vt 0.413312 0.864055
vt 0.417932 0.866386
vt 0.417932 0.872909
vt 0.415987 0.825477
vt 0.417277 0.825477
vt 0.417277 0.815162
vt 0.415987 0.815162
vt 0.406962 0.825477
vt 0.410830 0.817740
vt 0.406962 0.817740
vt 0.415987 0.825477
vt 0.415987 0.815162
vt 0.410830 0.815162
vt 0.435854 0.854620
vt 0.435854 0.848097
vt 0.427259 0.848098
vt 0.427259 0.854620
vt 0.435854 0.859795
vt 0.435854 0.854620
vt 0.427259 0.854620
vt 0.427259 0.859795
vt 0.427259 0.864779
vt 0.435854 0.864779
vt 0.435854 0.859795
vt 0.427259 0.859795
vt 0.419740 0.865657
vt 0.426262 0.865657
vt 0.415077 0.856847
vt 0.419740 0.848036
vt 0.426262 0.848036
vt 0.417307 0.827666
vt 0.410785 0.836262
vt 0.417307 0.836262
vt 0.410785 0.827666
vt 0.406122 0.836476
vt 0.408453 0.840882
vt 0.435991 0.820800
vt 0.435991 0.814278
vt 0.418370 0.814278
vt 0.418370 0.820800
vt 0.427259 0.864779
vt 0.427259 0.871301
vt 0.435854 0.871301
vt 0.435854 0.864779
vt 0.415987 0.826766
vt 0.415987 0.825477
vt 0.406962 0.825477
vt 0.406962 0.826766
vt 0.410830 0.817740
vt 0.410830 0.815162
vt 0.409541 0.815162
vt 0.409541 0.817740
vt 0.435991 0.830768
vt 0.418370 0.830768
vt 0.418370 0.840737
vt 0.435991 0.840737
vt 0.410830 0.815162
vt 0.415987 0.815162
vt 0.415987 0.813873
vt 0.410830 0.813873
vt 0.418370 0.830768
vt 0.435991 0.830768
vt 0.435991 0.820800
vt 0.418370 0.820800
vt 0.406962 0.816451
vt 0.406962 0.817740
vt 0.410830 0.817740
vt 0.410830 0.816451
vt 0.418370 0.840737
vt 0.418370 0.847259
vt 0.435991 0.847259
vt 0.435991 0.840737
vt 0.406962 0.817740
vt 0.405989 0.818780
vt 0.405989 0.826202
vt 0.406962 0.825477
s 0
f 54/54/1 53/53/1 52/52/1 51/51/1
f 13/13/2 10/10/2 12/12/2 11/11/2 15/15/2 14/14/2
f 70/70/3 69/69/3 68/68/3 67/67/3
f 23/23/4 22/22/4 21/21/4 20/20/4
f 46/46/5 45/45/5 44/44/5 43/43/5
f 62/62/3 61/61/3 60/60/3 59/59/3
f 2/2/3 1/1/3 3/3/3 4/4/3 5/5/3
f 27/27/6 26/26/6 25/25/6 24/24/6
f 74/74/5 73/73/5 72/72/5 71/71/5
f 9/9/5 8/8/5 7/7/5 6/6/5
f 50/50/7 49/49/7 48/48/7 47/47/7
f 36/36/3 33/33/3 35/35/3 34/34/3 38/38/3 37/37/3
f 78/78/1 77/77/1 76/76/1 75/75/1
f 66/66/8 65/65/8 64/64/8 63/63/8
f 29/29/7 28/28/7 30/30/7 31/31/7 32/32/7
f 55/55/6 58/58/6 57/57/6 56/56/6
f 19/19/1 18/18/1 17/17/1 16/16/1
f 42/42/1 41/41/1 40/40/1 39/39/1
