# Blender 3.5.1
# www.blender.org
g Turntable_Control_Panel_Shed
v -1.349205 0.000000 1.500301
v -1.349205 1.000000 1.500301
v -1.349205 0.000000 -1.500301
v -1.349205 1.000000 -1.500301
v 1.349205 0.000000 1.500301
v 1.349205 1.000000 1.500301
v 1.349205 0.000000 -1.500301
v 1.349205 1.000000 -1.500301
v -0.828589 1.000000 1.020930
v -0.828589 3.387023 1.020930
v -0.828589 3.387023 -1.020930
v 0.828589 3.387023 1.020930
v 0.828589 1.000000 -1.020930
v 0.828589 3.387023 -1.020930
v 0.828589 3.113878 1.020930
v 0.828589 3.113878 -0.871639
v 0.828589 3.113878 -0.120186
v -0.828589 3.011231 1.020930
v -0.395794 1.000000 1.020930
v 0.333031 1.000000 1.020930
v 0.333031 2.240539 1.020930
v -0.395794 2.240539 1.020930
v 0.333031 3.011231 1.020930
v 0.828589 3.113878 0.811149
v 0.828589 2.240539 0.192940
v 0.828589 3.011231 0.192940
v -0.828589 2.240539 0.192940
v -0.828589 3.011231 0.192940
v 0.828589 1.000000 -0.871639
v 0.828589 1.000000 1.020930
v -0.828589 3.387023 0.192940
v 0.828589 1.000000 0.192940
v 0.828589 1.000000 -0.120186
v -0.828589 1.000000 -1.020930
v -0.395794 3.011231 1.020930
v 0.828589 2.240539 0.811149
v 0.828589 3.011231 0.811149
v -0.828589 2.240539 0.811149
v -0.828589 3.011231 0.811149
v -0.809466 1.000000 1.007864
v -0.809466 3.387023 1.007864
v -0.809466 3.387023 -0.993158
v 0.814568 3.387023 1.007864
v 0.814568 1.000000 -0.993158
v 0.814568 3.387023 -0.993158
v 0.814568 3.113878 1.007864
v 0.814568 3.113878 -0.846853
v 0.814568 3.113878 -0.110429
v -0.809466 3.011231 1.007864
v -0.385327 1.000000 1.007864
v 0.328922 1.000000 1.007864
v 0.328922 2.240539 1.007864
v -0.385327 2.240539 1.007864
v 0.328922 3.011231 1.007864
v 0.814568 3.113878 0.802279
v 0.814568 2.240539 0.196434
v 0.814568 3.011231 0.196434
v -0.809466 2.240539 0.196434
v -0.809466 3.011231 0.196434
v 0.814568 1.000000 -0.846853
v 0.814568 1.000000 1.007864
v -0.809466 3.387023 0.196434
v 0.814568 1.000000 0.196434
v 0.814568 1.000000 -0.110429
v -0.809466 1.000000 -0.993158
v -0.385327 3.011231 1.007864
v 0.814568 2.240539 0.802279
v 0.814568 3.011231 0.802279
v -0.809466 2.240539 0.802279
v -0.809466 3.011231 0.802279
vn -1.0000 -0.0000 -0.0000
vn -0.0000 -0.0000 -1.0000
vn 1.0000 -0.0000 -0.0000
vn -0.0000 -0.0000 1.0000
vn -0.0000 -1.0000 -0.0000
vn -0.0000 1.0000 -0.0000
vn -0.9539 -0.0000 0.3000
vn 0.8704 -0.0000 0.4924
vn -0.4208 -0.0000 -0.9072
vn -0.5712 -0.0000 -0.8208
vn 0.5346 -0.0000 -0.8451
vn -0.1797 -0.0000 0.9837
vn 0.2418 -0.0000 0.9703
vn 0.7804 -0.0000 0.6252
vt 0.375000 0.000000
vt 0.375000 1.000000
vt 0.125000 0.750000
vt 0.625000 0.000000
vt 0.625000 1.000000
vt 0.875000 0.750000
vt 0.375000 0.250000
vt 0.125000 0.500000
vt 0.625000 0.250000
vt 0.875000 0.500000
vt 0.375000 0.750000
vt 0.625000 0.750000
vt 0.375000 0.500000
vt 0.625000 0.500000
vt 0.125000 0.750000
vt 0.375000 0.000000
vt 0.375000 1.000000
vt 0.875000 0.750000
vt 0.625000 1.000000
vt 0.625000 0.000000
vt 0.875000 0.500000
vt 0.625000 0.250000
vt 0.625000 0.750000
vt 0.375000 0.500000
vt 0.625000 0.500000
vt 0.598152 0.750000
vt 0.598152 0.538278
vt 0.598152 0.621611
vt 0.580342 1.000000
vt 0.580342 0.000000
vt 0.199759 0.750000
vt 0.375000 0.925241
vt 0.300241 0.750000
vt 0.375000 0.824759
vt 0.505958 0.824759
vt 0.505958 0.925241
vt 0.580342 0.824759
vt 0.598152 0.726397
vt 0.505958 0.683601
vt 0.580342 0.683601
vt 0.505958 0.066399
vt 0.580342 0.066399
vt 0.375000 0.538278
vt 0.375000 0.750000
vt 0.875000 0.683601
vt 0.625000 0.066399
vt 0.375000 0.683601
vt 0.375000 0.621611
vt 0.125000 0.500000
vt 0.375000 0.250000
vt 0.580342 0.925241
vt 0.505958 0.726397
vt 0.580342 0.726397
vt 0.505958 0.023603
vt 0.580342 0.023603
vt 0.125000 0.750000
vt 0.375000 0.000000
vt 0.375000 1.000000
vt 0.875000 0.750000
vt 0.625000 1.000000
vt 0.625000 0.000000
vt 0.875000 0.500000
vt 0.625000 0.250000
vt 0.625000 0.750000
vt 0.375000 0.500000
vt 0.625000 0.500000
vt 0.598152 0.750000
vt 0.598152 0.538278
vt 0.598152 0.621611
vt 0.580342 1.000000
vt 0.580342 0.000000
vt 0.199759 0.750000
vt 0.375000 0.925241
vt 0.300241 0.750000
vt 0.375000 0.824759
vt 0.505958 0.824759
vt 0.505958 0.925241
vt 0.580342 0.824759
vt 0.598152 0.726397
vt 0.505958 0.683601
vt 0.580342 0.683601
vt 0.505958 0.066399
vt 0.580342 0.066399
vt 0.375000 0.538278
vt 0.375000 0.750000
vt 0.875000 0.683601
vt 0.625000 0.066399
vt 0.375000 0.683601
vt 0.375000 0.621611
vt 0.125000 0.500000
vt 0.375000 0.250000
vt 0.580342 0.925241
vt 0.505958 0.726397
vt 0.580342 0.726397
vt 0.505958 0.023603
vt 0.580342 0.023603
s 0
f 1/1/1 2/4/1 4/9/1 3/7/1
f 3/7/2 4/9/2 8/14/2 7/13/2
f 7/13/3 8/14/3 6/12/3 5/11/3
f 5/11/4 6/12/4 2/5/4 1/2/4
f 3/8/5 7/13/5 5/11/5 1/3/5
f 8/14/6 4/10/6 2/6/6 6/12/6
f 34/49/5 13/24/5 29/43/5 33/48/5 32/47/5 30/44/5 20/33/5 19/31/5 9/15/5
f 38/54/1 27/41/1 28/42/1 31/46/1 11/22/1 34/50/1 9/16/1 18/30/1 39/55/1
f 14/25/6 11/21/6 31/45/6 10/18/6 12/23/6
f 32/47/3 25/39/3 36/52/3 37/53/3 24/38/3 15/26/3 30/44/3
f 20/34/4 21/35/4 22/36/4 19/32/4
f 14/25/3 12/23/3 15/26/3 24/38/3 37/53/3 26/40/3 25/39/3 32/47/3 33/48/3 17/28/3 16/27/3 29/43/3 13/24/3
f 34/50/2 11/22/2 14/25/2 13/24/2
f 15/26/4 12/23/4 10/19/4 18/29/4 9/17/4 19/32/4 22/36/4 35/51/4 23/37/4 21/35/4 20/34/4 30/44/4
f 10/20/1 31/46/1 28/42/1 39/55/1 18/30/1
f 65/90/6 40/56/6 50/72/6 51/74/6 61/85/6 63/88/6 64/89/6 60/84/6 44/65/6
f 69/95/3 70/96/3 49/71/3 40/57/3 65/91/3 42/63/3 62/87/3 59/83/3 58/82/3
f 45/66/5 43/64/5 41/59/5 62/86/5 42/62/5
f 63/88/1 61/85/1 46/67/1 55/79/1 68/94/1 67/93/1 56/80/1
f 51/75/2 50/73/2 53/77/2 52/76/2
f 45/66/1 44/65/1 60/84/1 47/68/1 48/69/1 64/89/1 63/88/1 56/80/1 57/81/1 68/94/1 55/79/1 46/67/1 43/64/1
f 65/91/4 44/65/4 45/66/4 42/63/4
f 46/67/2 61/85/2 51/75/2 52/76/2 54/78/2 66/92/2 53/77/2 50/73/2 40/58/2 49/70/2 41/60/2 43/64/2
f 41/61/3 49/71/3 70/96/3 59/83/3 62/87/3
f 33/48/6 29/43/6 60/84/6 64/89/6
f 21/35/7 23/37/7 54/78/7 52/76/7
f 36/52/6 25/39/6 56/80/6 67/93/6
f 29/43/8 16/27/8 47/68/8 60/84/8
f 38/54/9 39/55/9 70/96/9 69/95/9
f 26/40/5 37/53/5 68/94/5 57/81/5
f 17/28/10 33/48/10 64/89/10 48/69/10
f 37/53/11 36/52/11 67/93/11 68/94/11
f 27/41/6 38/54/6 69/95/6 58/82/6
f 28/42/12 27/41/12 58/82/12 59/83/12
f 23/37/5 35/51/5 66/92/5 54/78/5
f 39/55/5 28/42/5 59/83/5 70/96/5
f 25/39/13 26/40/13 57/81/13 56/80/13
f 35/51/14 22/36/14 53/77/14 66/92/14
f 16/27/5 17/28/5 48/69/5 47/68/5
f 22/36/6 21/35/6 52/76/6 53/77/6
