# Blender 3.5.0
# www.blender.org
g Turntable_Control_Panel
v 0.000000 0.860744 0.212544
v 0.155673 0.828496 -0.212544
v 0.155673 0.000000 -0.212544
v 0.155673 0.828496 0.212544
v 0.155673 0.000000 0.212544
v 0.000000 0.828496 -0.212544
v 0.000000 0.000000 -0.212544
v 0.000000 0.828496 0.212544
v 0.000000 0.000000 0.212544
v 0.000000 0.860744 0.054464
v 0.105794 0.860744 0.054464
v 0.000000 0.828496 0.274616
v 0.000000 0.860744 0.274616
v 0.328966 0.828496 0.274616
v 0.328966 0.860744 0.274616
v 0.000000 0.828496 -0.279788
v 0.000000 0.860623 -0.279788
v 0.328966 0.828496 -0.279788
v 0.328966 0.860623 -0.279788
v 0.105794 0.860744 0.200866
v 0.000000 0.860744 0.200866
v 0.105794 0.928580 0.200866
v 0.000000 0.928580 0.200866
v 0.000000 0.928580 0.108906
v 0.105794 0.928580 0.108906
v 0.000000 0.860624 -0.250969
v 0.000000 0.871246 -0.250969
v 0.041115 0.860624 -0.246920
v 0.041115 0.871246 -0.246920
v 0.080649 0.860624 -0.234927
v 0.080649 0.871246 -0.234927
v 0.117085 0.860624 -0.215452
v 0.117085 0.871246 -0.215452
v 0.149021 0.860624 -0.189243
v 0.149021 0.871246 -0.189243
v 0.175230 0.860624 -0.157307
v 0.175230 0.871246 -0.157307
v 0.194705 0.860624 -0.120872
v 0.194705 0.871246 -0.120872
v 0.206698 0.860624 -0.081337
v 0.206698 0.871246 -0.081337
v 0.210747 0.860624 -0.040222
v 0.210747 0.871246 -0.040222
v 0.082704 0.860624 -0.043029
v 0.082704 0.871246 -0.043029
v 0.081114 0.860624 -0.026895
v 0.081114 0.871246 -0.026895
v 0.076408 0.860624 -0.011380
v 0.076408 0.871246 -0.011380
v 0.068765 0.860624 0.002918
v 0.068765 0.871246 0.002918
v 0.058480 0.860624 0.015451
v 0.058480 0.871246 0.015451
v 0.045948 0.860624 0.025736
v 0.045948 0.871246 0.025736
v 0.031649 0.860624 0.033379
v 0.031649 0.871246 0.033379
v 0.016135 0.860624 0.038085
v 0.016135 0.871246 0.038085
v 0.000000 0.860624 0.039674
v 0.000000 0.871246 0.039674
v 0.061961 0.871246 -0.055553
v 0.061961 0.860624 -0.055553
v 0.058366 0.871246 -0.067404
v 0.058366 0.860624 -0.067404
v 0.052528 0.871246 -0.078326
v 0.052528 0.860624 -0.078326
v 0.044671 0.871246 -0.087899
v 0.044671 0.860624 -0.087899
v 0.035098 0.871246 -0.095756
v 0.035098 0.860624 -0.095756
v 0.024176 0.871246 -0.101594
v 0.024176 0.860624 -0.101594
v 0.012325 0.871246 -0.105189
v 0.012325 0.860624 -0.105189
v 0.000000 0.871246 -0.106403
v 0.000000 0.860624 -0.106403
v 0.063174 0.860624 -0.043228
v 0.063174 0.871246 -0.043228
v 0.061961 0.860624 -0.030904
v 0.061961 0.871246 -0.030904
v 0.058366 0.860624 -0.019053
v 0.058366 0.871246 -0.019053
v 0.052528 0.860624 -0.008131
v 0.052528 0.871246 -0.008131
v 0.044671 0.860624 0.001443
v 0.044671 0.871246 0.001443
v 0.035098 0.860624 0.009299
v 0.035098 0.871246 0.009299
v 0.024176 0.860624 0.015137
v 0.024176 0.871246 0.015137
v 0.012325 0.860624 0.018732
v 0.012325 0.871246 0.018732
v 0.000000 0.860624 0.019946
v 0.000000 0.871246 0.019946
v -0.155673 0.828496 -0.212544
v -0.155673 0.000000 -0.212544
v -0.155673 0.828496 0.212544
v -0.155673 0.000000 0.212544
v -0.105794 0.860744 0.054464
v -0.328966 0.828496 0.274616
v -0.328966 0.860744 0.274616
v -0.328966 0.828496 -0.279788
v -0.328966 0.860623 -0.279788
v -0.105794 0.860744 0.200866
v -0.105794 0.928580 0.200866
v -0.105794 0.928580 0.108906
v -0.041115 0.860624 -0.246920
v -0.041115 0.871246 -0.246920
v -0.080649 0.860624 -0.234927
v -0.080649 0.871246 -0.234927
v -0.117085 0.860624 -0.215452
v -0.117085 0.871246 -0.215452
v -0.149021 0.860624 -0.189243
v -0.149021 0.871246 -0.189243
v -0.175230 0.860624 -0.157307
v -0.175230 0.871246 -0.157307
v -0.194705 0.860624 -0.120872
v -0.194705 0.871246 -0.120872
v -0.206698 0.860624 -0.081337
v -0.206698 0.871246 -0.081337
v -0.210747 0.860624 -0.040222
v -0.210747 0.871246 -0.040222
v -0.082704 0.860624 -0.043029
v -0.082704 0.871246 -0.043029
v -0.081114 0.860624 -0.026895
v -0.081114 0.871246 -0.026895
v -0.076408 0.860624 -0.011380
v -0.076408 0.871246 -0.011380
v -0.068765 0.860624 0.002918
v -0.068765 0.871246 0.002918
v -0.058480 0.860624 0.015451
v -0.058480 0.871246 0.015451
v -0.045948 0.860624 0.025736
v -0.045948 0.871246 0.025736
v -0.031649 0.860624 0.033379
v -0.031649 0.871246 0.033379
v -0.016135 0.860624 0.038085
v -0.016135 0.871246 0.038085
v -0.061961 0.871246 -0.055553
v -0.061961 0.860624 -0.055553
v -0.058366 0.871246 -0.067404
v -0.058366 0.860624 -0.067404
v -0.052528 0.871246 -0.078326
v -0.052528 0.860624 -0.078326
v -0.044671 0.871246 -0.087899
v -0.044671 0.860624 -0.087899
v -0.035098 0.871246 -0.095756
v -0.035098 0.860624 -0.095756
v -0.024176 0.871246 -0.101594
v -0.024176 0.860624 -0.101594
v -0.012325 0.871246 -0.105189
v -0.012325 0.860624 -0.105189
v -0.063174 0.860624 -0.043228
v -0.063174 0.871246 -0.043228
v -0.061961 0.860624 -0.030904
v -0.061961 0.871246 -0.030904
v -0.058366 0.860624 -0.019053
v -0.058366 0.871246 -0.019053
v -0.052528 0.860624 -0.008131
v -0.052528 0.871246 -0.008131
v -0.044671 0.860624 0.001443
v -0.044671 0.871246 0.001443
v -0.035098 0.860624 0.009299
v -0.035098 0.871246 0.009299
v -0.024176 0.860624 0.015137
v -0.024176 0.871246 0.015137
v -0.012325 0.860624 0.018732
v -0.012325 0.871246 0.018732
vn -0.0000 -0.0000 -1.0000
vn -0.0000 -0.0000 1.0000
vn 1.0000 -0.0000 -0.0000
vn -0.0000 -1.0000 -0.0000
vn 0.0001 1.0000 -0.0002
vn -1.0000 -0.0000 -0.0000
vn -0.0000 1.0000 -0.0000
vn -0.0000 0.6259 -0.7799
vn 0.0980 -0.0000 -0.9952
vn 0.2903 -0.0000 -0.9569
vn 0.4714 -0.0000 -0.8819
vn 0.6344 -0.0000 -0.7730
vn 0.7730 -0.0000 -0.6344
vn 0.8819 -0.0000 -0.4714
vn 0.9569 -0.0000 -0.2903
vn 0.9952 -0.0000 -0.0980
vn 0.9952 -0.0000 0.0980
vn 0.9569 -0.0000 0.2903
vn 0.8819 -0.0000 0.4714
vn 0.7730 -0.0000 0.6344
vn 0.6344 -0.0000 0.7730
vn 0.4714 -0.0000 0.8819
vn 0.2903 -0.0000 0.9569
vn 0.0980 -0.0000 0.9952
vn -0.2903 -0.0000 0.9569
vn -0.0980 -0.0000 0.9952
vn -0.4714 -0.0000 0.8819
vn -0.6344 -0.0000 0.7730
vn -0.7730 -0.0000 0.6344
vn -0.8819 -0.0000 0.4714
vn -0.9569 -0.0000 0.2903
vn -0.9952 -0.0000 0.0980
vn -0.9952 -0.0000 -0.0980
vn -0.9569 -0.0000 -0.2903
vn -0.8819 -0.0000 -0.4714
vn -0.7730 -0.0000 -0.6344
vn -0.6344 -0.0000 -0.7730
vn -0.4714 -0.0000 -0.8819
vn -0.2903 -0.0000 -0.9569
vn -0.0980 -0.0000 -0.9952
vn -0.0219 -0.0000 0.9998
vn -0.0001 1.0000 -0.0002
vn 0.0219 -0.0000 0.9998
vt 0.625000 0.000000
vt 0.875000 0.750000
vt 0.625000 0.500000
vt 0.375000 0.500000
vt 0.625000 0.750000
vt 0.375000 0.750000
vt 0.625000 0.250000
vt 0.375000 0.250000
vt 0.625000 1.000000
vt 0.375000 1.000000
vt 0.625000 0.092969
vt 0.875000 0.657031
vt 0.625000 0.657031
vt 0.625000 1.000000
vt 0.625000 1.000000
vt 0.875000 0.750000
vt 0.625000 0.750000
vt 0.625000 0.750000
vt 0.625000 0.250000
vt 0.625000 0.250000
vt 0.875000 0.500000
vt 0.625000 0.500000
vt 0.625000 0.500000
vt 0.625000 0.750000
vt 0.625000 0.000000
vt 0.875000 0.750000
vt 0.625000 0.750000
vt 0.875000 0.750000
vt 0.875000 0.657031
vt 0.625000 0.657031
vt 1.000000 0.500000
vt 1.000000 1.000000
vt 0.968750 0.500000
vt 0.968750 1.000000
vt 0.937500 0.500000
vt 0.937500 1.000000
vt 0.906250 0.500000
vt 0.906250 1.000000
vt 0.875000 0.500000
vt 0.875000 1.000000
vt 0.843750 0.500000
vt 0.843750 1.000000
vt 0.812500 0.500000
vt 0.812500 1.000000
vt 0.781250 0.500000
vt 0.781250 1.000000
vt 0.750000 0.500000
vt 0.750000 1.000000
vt 0.750000 0.500000
vt 0.750000 1.000000
vt 0.718750 0.500000
vt 0.718750 1.000000
vt 0.687500 0.500000
vt 0.687500 1.000000
vt 0.656250 0.500000
vt 0.656250 1.000000
vt 0.625000 0.500000
vt 0.625000 1.000000
vt 0.593750 0.500000
vt 0.593750 1.000000
vt 0.562500 0.500000
vt 0.562500 1.000000
vt 0.531250 0.500000
vt 0.531250 1.000000
vt 0.500000 0.500000
vt 0.500000 1.000000
vt 0.781250 1.000000
vt 0.781250 0.500000
vt 0.812500 1.000000
vt 0.812500 0.500000
vt 0.843750 1.000000
vt 0.843750 0.500000
vt 0.875000 1.000000
vt 0.875000 0.500000
vt 0.906250 1.000000
vt 0.906250 0.500000
vt 0.937500 1.000000
vt 0.968750 1.000000
vt 0.968750 0.500000
vt 0.937500 0.500000
vt 1.000000 1.000000
vt 0.937500 1.000000
vt 1.000000 0.500000
vt 0.937500 0.500000
vt 0.968750 1.000000
vt 0.968750 0.500000
vt 0.750000 0.500000
vt 0.750000 1.000000
vt 0.718750 0.500000
vt 0.718750 1.000000
vt 0.687500 0.500000
vt 0.687500 1.000000
vt 0.656250 0.500000
vt 0.656250 1.000000
vt 0.625000 0.500000
vt 0.625000 1.000000
vt 0.593750 0.500000
vt 0.593750 1.000000
vt 0.562500 0.500000
vt 0.562500 1.000000
vt 0.531250 0.500000
vt 0.531250 1.000000
vt 0.500000 0.500000
vt 0.500000 1.000000
vt 0.625000 0.500000
vt 0.375000 0.500000
vt 0.625000 0.750000
vt 0.375000 0.750000
vt 0.625000 0.657031
vt 0.625000 0.750000
vt 0.625000 0.750000
vt 0.625000 0.500000
vt 0.625000 0.500000
vt 0.625000 0.750000
vt 0.625000 0.750000
vt 0.625000 0.657031
vt 0.968750 0.500000
vt 0.968750 1.000000
vt 0.937500 0.500000
vt 0.937500 1.000000
vt 0.906250 0.500000
vt 0.906250 1.000000
vt 0.875000 0.500000
vt 0.875000 1.000000
vt 0.843750 0.500000
vt 0.843750 1.000000
vt 0.812500 0.500000
vt 0.812500 1.000000
vt 0.781250 0.500000
vt 0.781250 1.000000
vt 0.750000 0.500000
vt 0.750000 1.000000
vt 0.750000 0.500000
vt 0.750000 1.000000
vt 0.718750 0.500000
vt 0.718750 1.000000
vt 0.687500 0.500000
vt 0.687500 1.000000
vt 0.656250 0.500000
vt 0.656250 1.000000
vt 0.625000 0.500000
vt 0.625000 1.000000
vt 0.593750 0.500000
vt 0.593750 1.000000
vt 0.562500 0.500000
vt 0.562500 1.000000
vt 0.531250 0.500000
vt 0.531250 1.000000
vt 0.781250 1.000000
vt 0.781250 0.500000
vt 0.812500 1.000000
vt 0.812500 0.500000
vt 0.843750 1.000000
vt 0.843750 0.500000
vt 0.875000 1.000000
vt 0.875000 0.500000
vt 0.906250 1.000000
vt 0.906250 0.500000
vt 0.937500 1.000000
vt 0.968750 1.000000
vt 0.968750 0.500000
vt 0.937500 0.500000
vt 1.000000 1.000000
vt 0.937500 1.000000
vt 1.000000 0.500000
vt 0.937500 0.500000
vt 0.750000 0.500000
vt 0.750000 1.000000
vt 0.718750 0.500000
vt 0.718750 1.000000
vt 0.687500 0.500000
vt 0.687500 1.000000
vt 0.656250 0.500000
vt 0.656250 1.000000
vt 0.625000 0.500000
vt 0.625000 1.000000
vt 0.593750 0.500000
vt 0.593750 1.000000
vt 0.562500 0.500000
vt 0.562500 1.000000
vt 0.531250 0.500000
vt 0.531250 1.000000
s 0
f 17/20/1 19/23/1 18/22/1 16/19/1
f 5/6/2 4/5/2 8/9/2 9/10/2
f 7/8/1 6/7/1 2/3/1 3/4/1
f 3/4/3 2/3/3 4/5/3 5/6/3
f 12/14/2 14/17/2 15/18/2 13/15/2
f 14/17/4 12/14/4 8/9/4 4/5/4 2/3/4 6/7/4 16/19/4 18/22/4
f 14/17/3 18/22/3 19/23/3 15/18/3
f 19/23/5 17/21/5 10/12/5 11/13/5 20/24/5 21/26/5 1/2/5 13/16/5 15/18/5
f 25/30/3 22/27/3 20/24/3 11/13/3
f 10/11/6 1/1/6 21/25/6
f 25/30/7 24/29/7 23/28/7 22/27/7
f 21/26/2 20/24/2 22/27/2 23/28/2
f 11/13/8 10/12/8 24/29/8 25/30/8
f 26/31/9 27/32/9 29/34/9 28/33/9
f 28/33/10 29/34/10 31/36/10 30/35/10
f 30/35/11 31/36/11 33/38/11 32/37/11
f 32/37/12 33/38/12 35/40/12 34/39/12
f 34/39/13 35/40/13 37/42/13 36/41/13
f 36/41/14 37/42/14 39/44/14 38/43/14
f 38/43/15 39/44/15 41/46/15 40/45/15
f 40/45/16 41/46/16 43/48/16 42/47/16
f 44/49/17 45/50/17 47/52/17 46/51/17
f 46/51/18 47/52/18 49/54/18 48/53/18
f 48/53/19 49/54/19 51/56/19 50/55/19
f 50/55/20 51/56/20 53/58/20 52/57/20
f 52/57/21 53/58/21 55/60/21 54/59/21
f 54/59/22 55/60/22 57/62/22 56/61/22
f 56/61/23 57/62/23 59/64/23 58/63/23
f 58/63/24 59/64/24 61/66/24 60/65/24
f 75/83/25 73/79/25 72/78/25 74/81/25
f 77/86/26 75/84/26 74/82/26 76/85/26
f 73/80/27 71/76/27 70/75/27 72/77/27
f 71/76/28 69/74/28 68/73/28 70/75/28
f 69/74/29 67/72/29 66/71/29 68/73/29
f 67/72/30 65/70/30 64/69/30 66/71/30
f 65/70/31 63/68/31 62/67/31 64/69/31
f 63/68/32 78/87/32 79/88/32 62/67/32
f 78/87/33 80/89/33 81/90/33 79/88/33
f 80/89/34 82/91/34 83/92/34 81/90/34
f 82/91/35 84/93/35 85/94/35 83/92/35
f 84/93/36 86/95/36 87/96/36 85/94/36
f 86/95/37 88/97/37 89/98/37 87/96/37
f 88/97/38 90/99/38 91/100/38 89/98/38
f 90/99/39 92/101/39 93/102/39 91/100/39
f 92/101/40 94/103/40 95/104/40 93/102/40
f 42/47/41 43/48/41 45/50/41 44/49/41
f 27/32/7 76/85/7 74/82/7 72/78/7 70/75/7 68/73/7 66/71/7 64/69/7 62/67/7 79/88/7 81/90/7 83/92/7 85/94/7 87/96/7 89/98/7 91/100/7 93/102/7 95/104/7 61/66/7 59/64/7 57/62/7 55/60/7 53/58/7 51/56/7 49/54/7 47/52/7 45/50/7 43/48/7 41/46/7 39/44/7 37/42/7 35/40/7 33/38/7 31/36/7 29/34/7
f 17/20/1 16/19/1 103/112/1 104/113/1
f 99/108/2 9/10/2 8/9/2 98/107/2
f 7/8/1 97/106/1 96/105/1 6/7/1
f 97/106/6 99/108/6 98/107/6 96/105/6
f 12/14/2 13/15/2 102/111/2 101/110/2
f 101/110/4 103/112/4 16/19/4 6/7/4 96/105/4 98/107/4 8/9/4 12/14/4
f 101/110/6 102/111/6 104/113/6 103/112/6
f 104/113/42 102/111/42 13/16/42 1/2/42 21/26/42 105/114/42 100/109/42 10/12/42 17/21/42
f 107/116/6 100/109/6 105/114/6 106/115/6
f 107/116/7 106/115/7 23/28/7 24/29/7
f 21/26/2 23/28/2 106/115/2 105/114/2
f 100/109/8 107/116/8 24/29/8 10/12/8
f 26/31/40 108/117/40 109/118/40 27/32/40
f 108/117/39 110/119/39 111/120/39 109/118/39
f 110/119/38 112/121/38 113/122/38 111/120/38
f 112/121/37 114/123/37 115/124/37 113/122/37
f 114/123/36 116/125/36 117/126/36 115/124/36
f 116/125/35 118/127/35 119/128/35 117/126/35
f 118/127/34 120/129/34 121/130/34 119/128/34
f 120/129/33 122/131/33 123/132/33 121/130/33
f 124/133/32 126/135/32 127/136/32 125/134/32
f 126/135/31 128/137/31 129/138/31 127/136/31
f 128/137/30 130/139/30 131/140/30 129/138/30
f 130/139/29 132/141/29 133/142/29 131/140/29
f 132/141/28 134/143/28 135/144/28 133/142/28
f 134/143/27 136/145/27 137/146/27 135/144/27
f 136/145/25 138/147/25 139/148/25 137/146/25
f 138/147/26 60/65/26 61/66/26 139/148/26
f 153/165/23 152/163/23 150/160/23 151/161/23
f 77/86/24 76/85/24 152/164/24 153/166/24
f 151/162/22 150/159/22 148/157/22 149/158/22
f 149/158/21 148/157/21 146/155/21 147/156/21
f 147/156/20 146/155/20 144/153/20 145/154/20
f 145/154/19 144/153/19 142/151/19 143/152/19
f 143/152/18 142/151/18 140/149/18 141/150/18
f 141/150/17 140/149/17 155/168/17 154/167/17
f 154/167/16 155/168/16 157/170/16 156/169/16
f 156/169/15 157/170/15 159/172/15 158/171/15
f 158/171/14 159/172/14 161/174/14 160/173/14
f 160/173/13 161/174/13 163/176/13 162/175/13
f 162/175/12 163/176/12 165/178/12 164/177/12
f 164/177/11 165/178/11 167/180/11 166/179/11
f 166/179/10 167/180/10 169/182/10 168/181/10
f 168/181/9 169/182/9 95/104/9 94/103/9
f 122/131/43 124/133/43 125/134/43 123/132/43
f 27/32/7 109/118/7 111/120/7 113/122/7 115/124/7 117/126/7 119/128/7 121/130/7 123/132/7 125/134/7 127/136/7 129/138/7 131/140/7 133/142/7 135/144/7 137/146/7 139/148/7 61/66/7 95/104/7 169/182/7 167/180/7 165/178/7 163/176/7 161/174/7 159/172/7 157/170/7 155/168/7 140/149/7 142/151/7 144/153/7 146/155/7 148/157/7 150/160/7 152/164/7 76/85/7
