# Blender 3.5.0
# www.blender.org
g Refill_Machine
v 0.148421 0.970925 0.079681
v 0.148421 1.035196 0.079681
v 0.148421 0.970925 0.007368
v 0.148421 1.035196 0.007368
v 0.198736 0.970925 0.079681
v 0.198736 1.035196 0.079681
v 0.198736 0.970925 0.007368
v 0.198736 1.035196 0.007368
v 0.175408 1.009472 0.000044
v 0.175408 1.009472 0.007544
v 0.172819 1.009794 0.000044
v 0.172819 1.009794 0.007544
v 0.170297 1.009088 0.000044
v 0.170297 1.009088 0.007544
v 0.168223 1.007459 0.000044
v 0.168223 1.007459 0.007544
v 0.166915 1.005157 0.000044
v 0.166915 1.005157 0.007544
v 0.166572 1.002533 0.000044
v 0.166572 1.002533 0.007544
v 0.167245 0.999983 0.000044
v 0.167245 0.999983 0.007544
v 0.168833 0.997900 0.000044
v 0.168833 0.997900 0.007544
v 0.171094 0.996596 0.000044
v 0.171094 0.996596 0.007544
v 0.173681 0.996275 0.000044
v 0.173681 0.996275 0.007544
v 0.176203 0.996982 0.000044
v 0.176203 0.996982 0.007544
v 0.178277 0.998610 0.000044
v 0.178277 0.998610 0.007544
v 0.179585 1.000912 0.000044
v 0.179585 1.000912 0.007544
v 0.179928 1.003536 0.000044
v 0.179928 1.003536 0.007544
v 0.179255 1.006086 0.000044
v 0.179255 1.006086 0.007544
v 0.177667 1.008169 0.000044
v 0.177667 1.008169 0.007544
v 0.180047 1.023457 0.000246
v 0.180047 1.023457 -0.025930
v 0.187302 1.019308 0.000246
v 0.187302 1.019308 -0.025930
v 0.192415 1.012698 0.000246
v 0.192415 1.012698 -0.025930
v 0.194609 1.004633 0.000246
v 0.194609 1.004633 -0.025930
v 0.193552 0.996343 0.000246
v 0.193552 0.996343 -0.025930
v 0.189401 0.989090 0.000246
v 0.189401 0.989090 -0.025930
v 0.182791 0.983978 0.000246
v 0.182791 0.983978 -0.025930
v 0.174726 0.981784 0.000246
v 0.174726 0.981784 -0.025930
v 0.166436 0.982843 0.000246
v 0.166436 0.982843 -0.025930
v 0.159182 0.986993 0.000246
v 0.159182 0.986993 -0.025930
v 0.154069 0.993604 0.000246
v 0.154069 0.993604 -0.025930
v 0.151874 1.001666 0.000246
v 0.151874 1.001666 -0.025930
v 0.152933 1.009956 0.000246
v 0.152933 1.009956 -0.025930
v 0.157084 1.017209 0.000246
v 0.157084 1.017209 -0.025930
v 0.163693 1.022323 0.000246
v 0.163693 1.022323 -0.025930
v 0.171758 1.024517 0.000246
v 0.171758 1.024517 -0.025930
v 0.179875 1.023575 -0.020567
v 0.225764 1.160509 -0.020567
v 0.182399 1.022729 -0.020038
v 0.228288 1.159663 -0.020038
v 0.184537 1.022012 -0.018530
v 0.230428 1.158946 -0.018530
v 0.185968 1.021532 -0.016273
v 0.231858 1.158467 -0.016273
v 0.186469 1.021364 -0.013612
v 0.232360 1.158299 -0.013612
v 0.185968 1.021532 -0.010950
v 0.231858 1.158467 -0.010950
v 0.184537 1.022012 -0.008694
v 0.230428 1.158946 -0.008694
v 0.182399 1.022729 -0.007186
v 0.228288 1.159663 -0.007186
v 0.179875 1.023575 -0.006656
v 0.225764 1.160509 -0.006656
v 0.177352 1.024421 -0.007186
v 0.223241 1.161354 -0.007186
v 0.175212 1.025137 -0.008694
v 0.221102 1.162072 -0.008694
v 0.173782 1.025617 -0.010950
v 0.219672 1.162550 -0.010950
v 0.173280 1.025785 -0.013612
v 0.219170 1.162718 -0.013612
v 0.173782 1.025617 -0.016273
v 0.219672 1.162550 -0.016273
v 0.175212 1.025137 -0.018530
v 0.221102 1.162072 -0.018530
v 0.177352 1.024421 -0.020038
v 0.223241 1.161354 -0.020038
v 0.247709 1.202735 -0.020695
v 0.251488 1.195656 -0.026526
v 0.252562 1.186601 -0.030422
v 0.250768 1.176943 -0.031790
v 0.246379 1.168154 -0.030422
v 0.240066 1.161574 -0.026526
v 0.232786 1.158203 -0.020695
v 0.250411 1.201829 -0.013817
v 0.256478 1.193985 -0.013817
v 0.259084 1.184416 -0.013817
v 0.257826 1.174577 -0.013817
v 0.252901 1.165969 -0.013817
v 0.245056 1.159901 -0.013817
v 0.235488 1.157297 -0.013817
v 0.247709 1.202735 -0.006940
v 0.251488 1.195656 -0.001109
v 0.252562 1.186601 0.002788
v 0.250768 1.176943 0.004156
v 0.246379 1.168154 0.002788
v 0.240066 1.161574 -0.001109
v 0.232786 1.158203 -0.006940
v 0.241188 1.204920 -0.004091
v 0.239437 1.199694 0.004156
v 0.236818 1.191877 0.009666
v 0.233726 1.182654 0.011600
v 0.230635 1.173431 0.009666
v 0.228016 1.165612 0.004156
v 0.226265 1.160388 -0.004091
v 0.234666 1.207105 -0.006940
v 0.227387 1.203733 -0.001109
v 0.221074 1.197152 0.002788
v 0.216684 1.188365 0.004156
v 0.214891 1.178707 0.002788
v 0.215965 1.169650 -0.001109
v 0.219743 1.162573 -0.006940
v 0.231965 1.208010 -0.013817
v 0.222395 1.205406 -0.013817
v 0.214552 1.199339 -0.013817
v 0.209627 1.190730 -0.013817
v 0.208370 1.180892 -0.013817
v 0.210973 1.171322 -0.013817
v 0.217042 1.163479 -0.013817
v 0.234666 1.207105 -0.020695
v 0.227387 1.203733 -0.026526
v 0.221074 1.197152 -0.030422
v 0.216684 1.188365 -0.031790
v 0.214891 1.178707 -0.030422
v 0.215965 1.169650 -0.026526
v 0.219743 1.162573 -0.020695
v 0.225650 1.158554 -0.013817
v 0.241802 1.206754 -0.013817
v 0.241188 1.204920 -0.023544
v 0.239437 1.199694 -0.031790
v 0.236818 1.191877 -0.037300
v 0.233726 1.182654 -0.039235
v 0.230635 1.173431 -0.037300
v 0.228016 1.165612 -0.031790
v 0.226265 1.160388 -0.023544
v -0.149426 2.039791 0.158119
v -0.149426 2.039791 -0.158095
v 0.148668 2.039791 0.158119
v 0.148668 2.039791 -0.158095
v 0.070345 2.039791 0.071897
v 0.070345 2.039791 -0.071493
v 0.057552 2.051112 -0.059185
v 0.057552 2.051112 0.060133
v -0.088272 2.039791 0.071897
v -0.088272 2.039791 -0.071493
v -0.076052 2.051112 -0.059185
v -0.076052 2.051112 0.060133
v -0.149426 0.051990 0.158119
v 0.148668 0.051990 0.158119
v 0.148668 0.051990 -0.158095
v -0.149426 0.051990 -0.158095
v 0.160638 0.051990 -0.158095
v -0.164651 -0.000036 0.169877
v 0.161027 -0.000036 0.169877
v -0.164651 0.052051 0.169877
v 0.161027 0.052051 0.169877
v -0.164651 -0.000036 -0.169853
v 0.161027 -0.000036 -0.169853
v 0.161027 0.052051 -0.169853
v -0.164651 0.052051 -0.169853
vn -1.0000 -0.0000 -0.0000
vn -0.0000 -0.0000 -1.0000
vn 1.0000 -0.0000 -0.0000
vn -0.0000 -0.0000 1.0000
vn -0.0000 -1.0000 -0.0000
vn -0.0000 1.0000 -0.0000
vn -0.7910 -0.6118 -0.0000
vn 0.8679 -0.4967 -0.0000
vn 0.1233 0.9924 -0.0000
vn 0.2694 -0.9630 -0.0000
vn 0.6174 -0.7867 -0.0000
vn -0.4965 -0.8680 -0.0000
vn 0.9920 -0.1265 -0.0000
vn 0.8694 -0.4941 -0.0000
vn 0.9916 -0.1297 -0.0000
vn 0.9669 0.2553 -0.0000
vn -0.1268 -0.9919 -0.0000
vn 0.9649 0.2624 -0.0000
vn 0.7956 0.6059 -0.0000
vn 0.4994 0.8664 -0.0000
vn 0.1234 0.9924 -0.0000
vn 0.2626 -0.9649 -0.0000
vn 0.7909 0.6119 -0.0000
vn 0.2698 -0.9629 -0.0000
vn 0.6176 -0.7865 -0.0000
vn 0.6118 -0.7910 -0.0000
vn 0.4970 0.8678 -0.0000
vn 0.9669 0.2552 -0.0000
vn 0.7954 0.6061 -0.0000
vn 0.4996 0.8663 -0.0000
vn -0.9649 -0.2627 -0.0000
vn -0.9919 0.1266 -0.0000
vn -0.8679 0.4967 -0.0000
vn -0.6120 0.7909 -0.0000
vn -0.2624 0.9649 -0.0000
vn 0.1268 0.9919 -0.0000
vn 0.1849 -0.0620 -0.9808
vn 0.5267 -0.1765 -0.8315
vn 0.7883 -0.2642 -0.5557
vn 0.9300 -0.3117 -0.1949
vn 0.9300 -0.3117 0.1949
vn 0.7882 -0.2641 0.5559
vn 0.5270 -0.1766 0.8313
vn 0.1849 -0.0620 0.9808
vn -0.1849 0.0620 0.9808
vn -0.5270 0.1766 0.8313
vn -0.7882 0.2641 0.5559
vn -0.9300 0.3117 0.1949
vn -0.9300 0.3117 -0.1949
vn -0.7883 0.2642 -0.5557
vn 0.3178 0.9482 -0.0000
vn -0.5267 0.1765 -0.8315
vn -0.1849 0.0620 -0.9808
vn -0.3178 -0.9482 -0.0000
vn 0.4143 0.0518 -0.9087
vn 0.4701 0.6970 -0.5415
vn -0.0448 -0.8396 -0.5414
vn 0.2994 -0.2910 -0.9087
vn 0.4757 0.3947 -0.7861
vn 0.3870 0.9014 -0.1944
vn -0.2343 -0.9525 -0.1944
vn 0.1419 -0.6015 -0.7862
vn 0.2559 -0.9403 -0.2243
vn 0.8041 -0.4601 -0.3764
vn 0.9123 0.2483 -0.3256
vn 0.4949 0.8652 -0.0805
vn -0.1264 -0.9887 -0.0806
vn 0.5785 -0.7479 -0.3256
vn 0.9190 -0.1174 -0.3764
vn 0.7708 0.5962 -0.2243
vn 0.4949 0.8652 0.0805
vn -0.1264 -0.9887 0.0806
vn 0.5785 -0.7479 0.3256
vn 0.9190 -0.1174 0.3764
vn 0.7708 0.5962 0.2243
vn 0.2558 -0.9403 0.2243
vn 0.8041 -0.4601 0.3764
vn 0.9123 0.2483 0.3256
vn 0.1419 -0.6015 0.7861
vn 0.4143 0.0517 0.9087
vn 0.4701 0.6970 0.5415
vn -0.0448 -0.8396 0.5414
vn 0.2995 -0.2910 0.9087
vn 0.4757 0.3947 0.7861
vn 0.3870 0.9014 0.1944
vn -0.2343 -0.9525 0.1944
vn -0.4701 -0.6971 0.5414
vn -0.4143 -0.0518 0.9087
vn -0.1418 0.6016 0.7861
vn 0.2343 0.9526 0.1943
vn -0.3872 -0.9012 0.1945
vn -0.4757 -0.3946 0.7861
vn -0.2995 0.2910 0.9087
vn 0.0448 0.8395 0.5415
vn -0.9190 0.1173 0.3763
vn -0.5785 0.7478 0.3257
vn 0.1263 0.9887 0.0805
vn -0.4949 -0.8652 0.0804
vn -0.9123 -0.2482 0.3257
vn -0.8041 0.4601 0.3764
vn -0.2559 0.9403 0.2243
vn -0.7708 -0.5963 0.2243
vn -0.4951 -0.8651 -0.0808
vn -0.9123 -0.2482 -0.3256
vn -0.8041 0.4601 -0.3764
vn -0.2559 0.9403 -0.2243
vn -0.7708 -0.5963 -0.2242
vn -0.9190 0.1173 -0.3763
vn -0.5785 0.7478 -0.3257
vn 0.1263 0.9887 -0.0805
vn -0.2994 0.2910 -0.9087
vn 0.0448 0.8395 -0.5415
vn -0.4701 -0.6971 -0.5414
vn -0.4143 -0.0518 -0.9087
vn -0.1418 0.6016 -0.7861
vn 0.2343 0.9526 -0.1943
vn -0.3869 -0.9014 -0.1944
vn -0.4757 -0.3946 -0.7862
vn -0.6796 0.7336 -0.0000
vn 0.6627 0.7489 -0.0000
vn -0.0000 0.7360 -0.6770
vn -0.0000 0.7205 0.6934
vn 0.9995 -0.0000 -0.0331
vn 0.9995 -0.0000 0.0331
vn 1.0000 0.0001 -0.0000
vn -0.9995 -0.0000 -0.0331
vn -0.9995 -0.0000 0.0331
vn -0.0000 -1.0000 -0.0051
vn -0.0000 -1.0000 0.0051
vn 0.0332 0.9994 -0.0000
vn -0.0329 0.9995 -0.0037
vn -0.0036 1.0000 -0.0000
vn 0.0001 1.0000 -0.0000
vt 0.375000 0.000000
vt 0.375000 1.000000
vt 0.125000 0.750000
vt 0.625000 0.000000
vt 0.625000 1.000000
vt 0.875000 0.750000
vt 0.375000 0.250000
vt 0.125000 0.500000
vt 0.625000 0.250000
vt 0.875000 0.500000
vt 0.375000 0.750000
vt 0.625000 0.750000
vt 0.375000 0.500000
vt 0.625000 0.500000
vt 1.000000 0.500000
vt 0.000000 0.500000
vt 0.750000 0.490000
vt 1.000000 1.000000
vt 0.250000 0.490000
vt 0.000000 1.000000
vt 0.937500 0.500000
vt 0.841844 0.471731
vt 0.937500 1.000000
vt 0.341844 0.471731
vt 0.875000 0.500000
vt 0.919706 0.419706
vt 0.875000 1.000000
vt 0.419706 0.419706
vt 0.812500 0.500000
vt 0.971731 0.341844
vt 0.812500 1.000000
vt 0.471731 0.341844
vt 0.750000 0.500000
vt 0.990000 0.250000
vt 0.750000 1.000000
vt 0.490000 0.250000
vt 0.687500 0.500000
vt 0.971731 0.158156
vt 0.687500 1.000000
vt 0.471731 0.158156
vt 0.625000 0.500000
vt 0.919706 0.080294
vt 0.625000 1.000000
vt 0.419706 0.080294
vt 0.562500 0.500000
vt 0.841844 0.028269
vt 0.562500 1.000000
vt 0.341844 0.028269
vt 0.500000 0.500000
vt 0.750000 0.010000
vt 0.500000 1.000000
vt 0.250000 0.010000
vt 0.437500 0.500000
vt 0.658156 0.028269
vt 0.437500 1.000000
vt 0.158156 0.028269
vt 0.375000 0.500000
vt 0.580294 0.080294
vt 0.375000 1.000000
vt 0.080294 0.080294
vt 0.312500 0.500000
vt 0.528269 0.158156
vt 0.312500 1.000000
vt 0.028269 0.158156
vt 0.250000 0.500000
vt 0.510000 0.250000
vt 0.250000 1.000000
vt 0.010000 0.250000
vt 0.187500 0.500000
vt 0.528269 0.341844
vt 0.187500 1.000000
vt 0.028269 0.341844
vt 0.125000 0.500000
vt 0.580294 0.419706
vt 0.080294 0.419706
vt 0.125000 1.000000
vt 0.062500 0.500000
vt 0.658156 0.471731
vt 0.158156 0.471731
vt 0.062500 1.000000
vt 0.437500 0.500000
vt 0.000000 0.500000
vt 0.750000 0.490000
vt 0.437500 1.000000
vt 0.250000 0.490000
vt 0.000000 1.000000
vt 0.562500 0.500000
vt 0.375000 0.500000
vt 0.841844 0.471731
vt 0.562500 1.000000
vt 0.375000 1.000000
vt 0.341844 0.471731
vt 0.687500 0.500000
vt 0.500000 0.500000
vt 0.919706 0.419706
vt 0.687500 1.000000
vt 0.500000 1.000000
vt 0.419706 0.419706
vt 0.812500 0.500000
vt 0.625000 0.500000
vt 0.971731 0.341844
vt 0.812500 1.000000
vt 0.625000 1.000000
vt 0.471731 0.341844
vt 0.937500 0.500000
vt 0.750000 0.500000
vt 0.990000 0.250000
vt 0.937500 1.000000
vt 0.750000 1.000000
vt 0.490000 0.250000
vt 0.875000 0.500000
vt 0.500000 0.500000
vt 0.971731 0.158156
vt 0.875000 1.000000
vt 0.500000 1.000000
vt 0.471731 0.158156
vt 0.625000 0.500000
vt 0.437500 0.500000
vt 0.919706 0.080294
vt 0.625000 1.000000
vt 0.437500 1.000000
vt 0.419706 0.080294
vt 0.750000 0.500000
vt 0.562500 0.500000
vt 0.841844 0.028269
vt 0.750000 1.000000
vt 0.562500 1.000000
vt 0.341844 0.028269
vt 0.875000 0.500000
vt 0.687500 0.500000
vt 0.750000 0.010000
vt 0.875000 1.000000
vt 0.687500 1.000000
vt 0.250000 0.010000
vt 1.000000 0.500000
vt 0.812500 0.500000
vt 0.658156 0.028269
vt 1.000000 1.000000
vt 0.812500 1.000000
vt 0.158156 0.028269
vt 0.937500 0.500000
vt 0.375000 0.500000
vt 0.580294 0.080294
vt 0.937500 1.000000
vt 0.375000 1.000000
vt 0.080294 0.080294
vt 0.312500 0.500000
vt 0.528269 0.158156
vt 0.312500 1.000000
vt 0.028269 0.158156
vt 0.250000 0.500000
vt 0.510000 0.250000
vt 0.250000 1.000000
vt 0.010000 0.250000
vt 0.187500 0.500000
vt 0.528269 0.341844
vt 0.187500 1.000000
vt 0.028269 0.341844
vt 0.125000 0.500000
vt 0.580294 0.419706
vt 0.080294 0.419706
vt 0.125000 1.000000
vt 0.062500 0.500000
vt 0.658156 0.471731
vt 0.158156 0.471731
vt 0.062500 1.000000
vt 1.000000 0.500000
vt 0.000000 0.500000
vt 0.750000 0.490000
vt 1.000000 1.000000
vt 0.250000 0.490000
vt 0.000000 1.000000
vt 0.937500 0.500000
vt 0.841844 0.471731
vt 0.937500 1.000000
vt 0.341844 0.471731
vt 0.875000 0.500000
vt 0.919706 0.419706
vt 0.875000 1.000000
vt 0.419706 0.419706
vt 0.812500 0.500000
vt 0.971731 0.341844
vt 0.812500 1.000000
vt 0.471731 0.341844
vt 0.750000 0.500000
vt 0.990000 0.250000
vt 0.750000 1.000000
vt 0.490000 0.250000
vt 0.687500 0.500000
vt 0.971731 0.158156
vt 0.687500 1.000000
vt 0.471731 0.158156
vt 0.625000 0.500000
vt 0.919706 0.080294
vt 0.625000 1.000000
vt 0.419706 0.080294
vt 0.562500 0.500000
vt 0.841844 0.028269
vt 0.562500 1.000000
vt 0.341844 0.028269
vt 0.500000 0.500000
vt 0.750000 0.010000
vt 0.500000 1.000000
vt 0.250000 0.010000
vt 0.437500 0.500000
vt 0.658156 0.028269
vt 0.437500 1.000000
vt 0.158156 0.028269
vt 0.375000 0.500000
vt 0.580294 0.080294
vt 0.375000 1.000000
vt 0.080294 0.080294
vt 0.312500 0.500000
vt 0.528269 0.158156
vt 0.312500 1.000000
vt 0.028269 0.158156
vt 0.250000 0.500000
vt 0.510000 0.250000
vt 0.250000 1.000000
vt 0.010000 0.250000
vt 0.187500 0.500000
vt 0.528269 0.341844
vt 0.187500 1.000000
vt 0.028269 0.341844
vt 0.125000 0.500000
vt 0.580294 0.419706
vt 0.080294 0.419706
vt 0.125000 1.000000
vt 0.062500 0.500000
vt 0.658156 0.471731
vt 0.158156 0.471731
vt 0.062500 1.000000
vt 0.625000 0.875000
vt 0.625000 0.750000
vt 0.625000 0.625000
vt 0.625000 0.500000
vt 0.625000 0.375000
vt 0.625000 0.250000
vt 0.625000 0.125000
vt 0.500000 0.875000
vt 0.500000 0.750000
vt 0.500000 0.625000
vt 0.500000 0.500000
vt 0.500000 0.375000
vt 0.500000 0.250000
vt 0.500000 0.125000
vt 0.375000 0.875000
vt 0.375000 0.750000
vt 0.375000 0.625000
vt 0.375000 0.500000
vt 0.375000 0.375000
vt 0.375000 0.250000
vt 0.375000 0.125000
vt 0.250000 0.875000
vt 0.250000 0.750000
vt 0.250000 0.625000
vt 0.250000 0.500000
vt 0.250000 0.375000
vt 0.250000 0.250000
vt 0.250000 0.125000
vt 0.125000 0.875000
vt 0.125000 0.750000
vt 0.125000 0.625000
vt 0.125000 0.500000
vt 0.125000 0.375000
vt 0.125000 0.250000
vt 0.125000 0.125000
vt 0.000000 0.875000
vt 1.000000 0.875000
vt 0.000000 0.750000
vt 1.000000 0.750000
vt 0.000000 0.625000
vt 1.000000 0.625000
vt 0.000000 0.500000
vt 1.000000 0.500000
vt 0.000000 0.375000
vt 1.000000 0.375000
vt 0.000000 0.250000
vt 1.000000 0.250000
vt 0.000000 0.125000
vt 1.000000 0.125000
vt 0.875000 0.875000
vt 0.875000 0.750000
vt 0.875000 0.625000
vt 0.875000 0.500000
vt 0.875000 0.375000
vt 0.875000 0.250000
vt 0.875000 0.125000
vt 0.687500 0.000000
vt 0.562500 0.000000
vt 0.437500 0.000000
vt 0.312500 0.000000
vt 0.187500 0.000000
vt 0.062500 0.000000
vt 0.937500 0.000000
vt 0.812500 0.000000
vt 0.687500 1.000000
vt 0.562500 1.000000
vt 0.437500 1.000000
vt 0.312500 1.000000
vt 0.187500 1.000000
vt 0.062500 1.000000
vt 0.937500 1.000000
vt 0.812500 1.000000
vt 0.750000 0.875000
vt 0.750000 0.750000
vt 0.750000 0.625000
vt 0.750000 0.500000
vt 0.750000 0.375000
vt 0.750000 0.250000
vt 0.750000 0.125000
vt 0.625000 1.000000
vt 0.625000 0.250000
vt 0.625000 0.750000
vt 0.625000 0.500000
vt 0.750000 0.625000
vt 0.750000 0.562500
vt 0.750000 0.568061
vt 0.750000 0.618512
vt 0.812500 0.625000
vt 0.812500 0.562500
vt 0.812500 0.568061
vt 0.812500 0.618512
vt 0.137500 0.756250
vt 0.381250 1.000000
vt 0.381250 0.750000
vt 0.381250 0.500000
vt 0.137500 0.493750
vt 0.381250 0.500000
vt 0.125000 0.750000
vt 0.375000 1.000000
vt 0.375000 0.750000
vt 0.381250 1.000000
vt 0.137500 0.756250
vt 0.381250 0.750000
vt 0.125000 0.500000
vt 0.375000 0.500000
vt 0.381250 0.500000
vt 0.137500 0.493750
s 0
f 1/1/1 2/4/1 4/9/1 3/7/1
f 3/7/2 4/9/2 8/14/2 7/13/2
f 7/13/3 8/14/3 6/12/3 5/11/3
f 5/11/4 6/12/4 2/5/4 1/2/4
f 3/8/5 7/13/5 5/11/5 1/3/5
f 8/14/6 4/10/6 2/6/6 6/12/6
f 59/135/7 61/141/7 62/144/7 60/138/7
f 49/105/8 51/111/8 52/114/8 50/108/8
f 9/15/9 11/21/9 12/23/9 10/18/9
f 11/21/10 12/23/10 14/27/10 13/25/10
f 13/25/11 14/27/11 16/31/11 15/29/11
f 57/129/12 59/136/12 60/139/12 58/132/12
f 47/99/13 49/106/13 50/109/13 48/102/13
f 15/29/14 16/31/14 18/35/14 17/33/14
f 17/33/15 18/35/15 20/39/15 19/37/15
f 19/37/16 20/39/16 22/43/16 21/41/16
f 55/123/17 57/130/17 58/133/17 56/126/17
f 45/93/18 47/100/18 48/103/18 46/96/18
f 21/41/19 22/43/19 24/47/19 23/45/19
f 23/45/20 24/47/20 26/51/20 25/49/20
f 25/49/21 26/51/21 28/55/21 27/53/21
f 53/117/22 55/124/22 56/127/22 54/120/22
f 43/87/23 45/94/23 46/97/23 44/90/23
f 27/53/24 29/57/24 30/59/24 28/55/24
f 29/57/25 31/61/25 32/63/25 30/59/25
f 31/61/14 33/65/14 34/67/14 32/63/14
f 51/112/26 53/118/26 54/121/26 52/115/26
f 41/81/27 43/88/27 44/91/27 42/84/27
f 33/65/15 35/69/15 36/71/15 34/67/15
f 35/69/28 37/73/28 38/76/28 36/71/28
f 12/24/2 10/19/2 40/79/2 38/75/2 36/72/2 34/68/2 32/64/2 30/60/2 28/56/2 26/52/2 24/48/2 22/44/2 20/40/2 18/36/2 16/32/2 14/28/2
f 37/73/29 39/77/29 40/80/29 38/76/29
f 39/77/30 9/16/30 10/20/30 40/80/30
f 9/17/4 11/22/4 13/26/4 15/30/4 17/34/4 19/38/4 21/42/4 23/46/4 25/50/4 27/54/4 29/58/4 31/62/4 33/66/4 35/70/4 37/74/4 39/78/4
f 61/142/31 63/147/31 64/149/31 62/145/31
f 63/147/32 65/151/32 66/153/32 64/149/32
f 65/151/33 67/155/33 68/157/33 66/153/33
f 67/155/34 69/159/34 70/162/34 68/157/34
f 52/116/2 54/122/2 56/128/2 58/134/2 60/140/2 62/146/2 64/150/2 66/154/2 68/158/2 70/161/2 72/165/2 42/85/2 44/92/2 46/98/2 48/104/2 50/110/2
f 69/159/35 71/163/35 72/166/35 70/162/35
f 71/163/36 41/82/36 42/86/36 72/166/36
f 61/143/4 59/137/4 57/131/4 55/125/4 53/119/4 51/113/4 49/107/4 47/101/4 45/95/4 43/89/4 41/83/4 71/164/4 69/160/4 67/156/4 65/152/4 63/148/4
f 73/167/37 74/170/37 76/175/37 75/173/37
f 75/173/38 76/175/38 78/179/38 77/177/38
f 77/177/39 78/179/39 80/183/39 79/181/39
f 79/181/40 80/183/40 82/187/40 81/185/40
f 81/185/41 82/187/41 84/191/41 83/189/41
f 83/189/42 84/191/42 86/195/42 85/193/42
f 85/193/43 86/195/43 88/199/43 87/197/43
f 87/197/44 88/199/44 90/203/44 89/201/44
f 89/201/45 90/203/45 92/207/45 91/205/45
f 91/205/46 92/207/46 94/211/46 93/209/46
f 93/209/47 94/211/47 96/215/47 95/213/47
f 95/213/48 96/215/48 98/219/48 97/217/48
f 97/217/49 98/219/49 100/223/49 99/221/49
f 99/221/50 100/223/50 102/228/50 101/225/50
f 76/176/51 74/171/51 104/231/51 102/227/51 100/224/51 98/220/51 96/216/51 94/212/51 92/208/51 90/204/51 88/200/51 86/196/51 84/192/51 82/188/51 80/184/51 78/180/51
f 101/225/52 102/228/52 104/232/52 103/229/52
f 103/229/53 104/232/53 74/172/53 73/168/53
f 73/169/54 75/174/54 77/178/54 79/182/54 81/186/54 83/190/54 85/194/54 87/198/54 89/202/54 91/206/54 93/210/54 95/214/54 97/218/54 99/222/54 101/226/54 103/230/54
f 159/308/55 158/307/55 107/235/55 108/236/55
f 157/306/56 156/305/56 105/233/56 106/234/56
f 162/311/57 161/310/57 110/238/57 111/239/57
f 160/309/58 159/308/58 108/236/58 109/237/58
f 158/307/59 157/306/59 106/234/59 107/235/59
f 156/305/60 155/297/60 105/233/60
f 154/289/61 162/311/61 111/239/61
f 161/310/62 160/309/62 109/237/62 110/238/62
f 111/239/63 110/238/63 117/245/63 118/246/63
f 109/237/64 108/236/64 115/243/64 116/244/64
f 107/235/65 106/234/65 113/241/65 114/242/65
f 105/233/66 155/298/66 112/240/66
f 154/290/67 111/239/67 118/246/67
f 110/238/68 109/237/68 116/244/68 117/245/68
f 108/236/69 107/235/69 114/242/69 115/243/69
f 106/234/70 105/233/70 112/240/70 113/241/70
f 112/240/71 155/299/71 119/247/71
f 154/291/72 118/246/72 125/253/72
f 117/245/73 116/244/73 123/251/73 124/252/73
f 115/243/74 114/242/74 121/249/74 122/250/74
f 113/241/75 112/240/75 119/247/75 120/248/75
f 118/246/76 117/245/76 124/252/76 125/253/76
f 116/244/77 115/243/77 122/250/77 123/251/77
f 114/242/78 113/241/78 120/248/78 121/249/78
f 124/252/79 123/251/79 130/258/79 131/259/79
f 122/250/80 121/249/80 128/256/80 129/257/80
f 120/248/81 119/247/81 126/254/81 127/255/81
f 125/253/82 124/252/82 131/259/82 132/260/82
f 123/251/83 122/250/83 129/257/83 130/258/83
f 121/249/84 120/248/84 127/255/84 128/256/84
f 119/247/85 155/300/85 126/254/85
f 154/292/86 125/253/86 132/260/86
f 132/260/87 131/259/87 138/266/87 139/267/87
f 130/258/88 129/257/88 136/264/88 137/265/88
f 128/256/89 127/255/89 134/262/89 135/263/89
f 126/254/90 155/301/90 133/261/90
f 154/293/91 132/260/91 139/267/91
f 131/259/92 130/258/92 137/265/92 138/266/92
f 129/257/93 128/256/93 135/263/93 136/264/93
f 127/255/94 126/254/94 133/261/94 134/262/94
f 137/265/95 136/264/95 143/274/95 144/276/95
f 135/263/96 134/262/96 141/270/96 142/272/96
f 133/261/97 155/302/97 140/268/97
f 154/294/98 139/267/98 146/280/98
f 138/266/99 137/265/99 144/276/99 145/278/99
f 136/264/100 135/263/100 142/272/100 143/274/100
f 134/262/101 133/261/101 140/268/101 141/270/101
f 139/267/102 138/266/102 145/278/102 146/280/102
f 154/295/103 146/281/103 153/288/103
f 145/279/104 144/277/104 151/286/104 152/287/104
f 143/275/105 142/273/105 149/284/105 150/285/105
f 141/271/106 140/269/106 147/282/106 148/283/106
f 146/281/107 145/279/107 152/287/107 153/288/107
f 144/277/108 143/275/108 150/285/108 151/286/108
f 142/273/109 141/271/109 148/283/109 149/284/109
f 140/269/110 155/303/110 147/282/110
f 150/285/111 149/284/111 158/307/111 159/308/111
f 148/283/112 147/282/112 156/305/112 157/306/112
f 153/288/113 152/287/113 161/310/113 162/311/113
f 151/286/114 150/285/114 159/308/114 160/309/114
f 149/284/115 148/283/115 157/306/115 158/307/115
f 147/282/116 155/304/116 156/305/116
f 154/296/117 153/288/117 162/311/117
f 152/287/118 151/286/118 160/309/118 161/310/118
f 177/327/3 166/315/3 165/314/3 176/326/3
f 171/320/119 174/323/119 173/322/119 172/321/119
f 167/316/120 168/317/120 169/318/120 170/319/120
f 175/324/1 163/312/1 164/313/1 178/328/1
f 164/313/6 163/312/6 165/314/6 166/315/6
f 168/317/5 167/316/5 171/320/5 172/321/5
f 169/318/6 173/322/6 174/323/6 170/319/6
f 168/317/121 172/321/121 173/322/121 169/318/121
f 170/319/122 174/323/122 171/320/122 167/316/122
f 178/328/2 164/313/2 166/315/2 177/327/2
f 165/314/4 163/312/4 175/325/4 176/326/4
f 181/332/123 185/337/124 186/338/124 179/329/125 183/335/123
f 182/334/126 187/339/127 184/336/127 180/330/126
f 180/330/128 184/336/129 185/337/129 181/332/128
f 183/335/4 182/333/4 180/331/4 181/332/4
f 184/336/2 187/339/2 186/338/2 185/337/2
f 177/327/5 176/326/5 175/325/5 178/328/5
f 182/334/130 183/335/131 179/329/132 186/338/133 187/339/130
l 177 179
