# Blender 3.5.1
# www.blender.org
g Water_Tower_2
v 0.000000 0.750000 -0.176581
v 0.000000 4.940000 -0.176581
v 0.067575 0.750000 -0.163139
v 0.067575 4.940000 -0.163139
v 0.124862 0.750000 -0.124862
v 0.124862 4.940000 -0.124862
v 0.163139 0.750000 -0.067575
v 0.163139 4.940000 -0.067575
v 0.176581 0.750000 -0.000000
v 0.176581 4.940000 -0.000000
v 0.163139 0.750000 0.067575
v 0.163139 4.940000 0.067575
v 0.124862 0.750000 0.124862
v 0.124862 4.940000 0.124862
v 0.067575 0.750000 0.163139
v 0.067575 4.940000 0.163139
v 0.000000 0.750000 0.176581
v 0.000000 4.940000 0.176581
v -0.067575 0.750000 0.163139
v -0.067575 4.940000 0.163139
v -0.124862 0.750000 0.124862
v -0.124862 4.940000 0.124862
v -0.163139 0.750000 0.067575
v -0.163139 4.940000 0.067575
v -0.176581 0.750000 -0.000000
v -0.176581 4.940000 -0.000000
v -0.163139 0.750000 -0.067575
v -0.163139 4.940000 -0.067575
v -0.124862 0.750000 -0.124862
v -0.124862 4.940000 -0.124862
v -0.067575 0.750000 -0.163139
v -0.067575 4.940000 -0.163139
v 0.000000 5.066500 -0.118158
v 0.045217 5.066500 -0.109163
v 0.083550 5.066500 -0.083550
v 0.109163 5.066500 -0.045217
v 0.118158 5.066500 -0.000000
v 0.109163 5.066500 0.045217
v 0.083550 5.066500 0.083550
v 0.045217 5.066500 0.109163
v 0.000000 5.066500 0.118158
v -0.045217 5.066500 0.109163
v -0.083550 5.066500 0.083550
v -0.109163 5.066500 0.045217
v -0.118158 5.066500 -0.000000
v -0.109163 5.066500 -0.045217
v -0.083550 5.066500 -0.083550
v -0.045217 5.066500 -0.109163
v 0.000000 5.220000 -0.118158
v 0.045217 5.220000 -0.109163
v 0.083550 5.220000 -0.083550
v 0.109163 5.220000 -0.045217
v 0.118158 5.220000 -0.000000
v 0.109163 5.220000 0.045217
v 0.083550 5.220000 0.083550
v 0.045217 5.220000 0.109163
v 0.000000 5.220000 0.118158
v -0.045217 5.220000 0.109163
v -0.083550 5.220000 0.083550
v -0.109163 5.220000 0.045217
v -0.118158 5.220000 -0.000000
v -0.109163 5.220000 -0.045217
v -0.083550 5.220000 -0.083550
v -0.045217 5.220000 -0.109163
v 0.000000 5.334171 -0.165631
v 0.045217 5.340531 -0.159271
v 0.083550 5.358642 -0.141160
v 0.109163 5.385748 -0.114054
v 0.118158 5.417721 -0.082081
v 0.109163 5.449695 -0.050108
v 0.083550 5.476800 -0.023002
v 0.045217 5.494911 -0.004891
v 0.000000 5.501271 0.001469
v -0.045217 5.494911 -0.004891
v -0.083550 5.476800 -0.023002
v -0.109163 5.449695 -0.050108
v -0.118158 5.417721 -0.082081
v -0.109163 5.385748 -0.114054
v -0.083550 5.358642 -0.141160
v -0.045217 5.340531 -0.159271
v 0.000000 5.382068 -0.279998
v 0.045217 5.391062 -0.279998
v 0.083550 5.416676 -0.279997
v 0.109164 5.455009 -0.279998
v 0.118158 5.500226 -0.279998
v 0.109164 5.545443 -0.279998
v 0.083550 5.583776 -0.279998
v 0.045217 5.609389 -0.279998
v 0.000000 5.618383 -0.279997
v -0.045217 5.609389 -0.279998
v -0.083550 5.583776 -0.279998
v -0.109163 5.545443 -0.279998
v -0.118158 5.500226 -0.279998
v -0.109163 5.455009 -0.279998
v -0.083550 5.416676 -0.279997
v -0.045217 5.391062 -0.279998
v 0.000000 5.382068 -2.520000
v 0.045217 5.391062 -2.520000
v 0.083550 5.416676 -2.520000
v 0.109164 5.455009 -2.520000
v 0.118158 5.500226 -2.520000
v 0.109164 5.545443 -2.520000
v 0.083550 5.583776 -2.520000
v 0.045217 5.609389 -2.520000
v 0.000000 5.618383 -2.520000
v -0.045217 5.609389 -2.520000
v -0.083550 5.583776 -2.520000
v -0.109163 5.545443 -2.520000
v -0.118158 5.500226 -2.520000
v -0.109163 5.455009 -2.520000
v -0.083550 5.416676 -2.520000
v -0.045217 5.391062 -2.520000
v 0.000000 5.315336 -2.648900
v 0.045217 5.321695 -2.655260
v 0.083550 5.339807 -2.673371
v 0.109164 5.366913 -2.700476
v 0.118158 5.398886 -2.732450
v 0.109164 5.430859 -2.764423
v 0.083550 5.457964 -2.791528
v 0.045217 5.476076 -2.809640
v 0.000000 5.482436 -2.816000
v -0.045217 5.476076 -2.809640
v -0.083550 5.457964 -2.791528
v -0.109163 5.430859 -2.764423
v -0.118158 5.398886 -2.732450
v -0.109163 5.366913 -2.700476
v -0.083550 5.339807 -2.673371
v -0.045217 5.321695 -2.655260
v 0.000000 5.219999 -2.682546
v 0.045217 5.219999 -2.691540
v 0.083550 5.219999 -2.717154
v 0.109164 5.219999 -2.755487
v 0.118158 5.219999 -2.800704
v 0.109164 5.219999 -2.845921
v 0.083550 5.219999 -2.884254
v 0.045217 5.219999 -2.909867
v 0.000000 5.219999 -2.918861
v -0.045217 5.219999 -2.909867
v -0.083550 5.219999 -2.884254
v -0.109163 5.219999 -2.845921
v -0.118158 5.219999 -2.800704
v -0.109163 5.219999 -2.755487
v -0.083550 5.219999 -2.717154
v -0.045217 5.219999 -2.691540
v 0.000000 5.080000 -2.682546
v 0.045217 5.079999 -2.691540
v 0.083550 5.080000 -2.717154
v 0.109164 5.080000 -2.755487
v 0.118158 5.080000 -2.800704
v 0.109164 5.079999 -2.845921
v 0.083550 5.080000 -2.884254
v 0.045217 5.080000 -2.909867
v 0.000000 5.080000 -2.918861
v -0.045217 5.080000 -2.909867
v -0.083550 5.080000 -2.884254
v -0.109163 5.079999 -2.845921
v -0.118158 5.080000 -2.800704
v -0.109163 5.080000 -2.755487
v -0.083550 5.080000 -2.717154
v -0.045217 5.079999 -2.691540
v 0.000000 -0.200000 -0.876609
v 0.000000 1.800000 -0.876609
v 0.067575 -0.200000 -0.863168
v 0.067575 1.800000 -0.863168
v 0.124862 -0.200000 -0.824890
v 0.124862 1.800000 -0.824890
v 0.163139 -0.200000 -0.767603
v 0.163139 1.800000 -0.767603
v 0.176581 -0.200000 -0.700028
v 0.176581 1.800000 -0.700028
v 0.163139 -0.200000 -0.632454
v 0.163139 1.800000 -0.632454
v 0.124862 -0.200000 -0.575167
v 0.124862 1.800000 -0.575167
v 0.067575 -0.200000 -0.536889
v 0.067575 1.800000 -0.536889
v 0.000000 -0.200000 -0.523448
v 0.000000 1.800000 -0.523448
v -0.067575 -0.200000 -0.536889
v -0.067575 1.800000 -0.536889
v -0.124862 -0.200000 -0.575167
v -0.124862 1.800000 -0.575167
v -0.163139 -0.200000 -0.632454
v -0.163139 1.800000 -0.632454
v -0.176581 -0.200000 -0.700028
v -0.176581 1.800000 -0.700028
v -0.163139 -0.200000 -0.767603
v -0.163139 1.800000 -0.767603
v -0.124862 -0.200000 -0.824890
v -0.124862 1.800000 -0.824890
v -0.067575 -0.200000 -0.863168
v -0.067575 1.800000 -0.863168
v 0.000000 1.623588 0.300779
v 0.000000 1.623588 -1.000341
v 0.067575 1.637029 0.300779
v 0.067575 1.637029 -1.000341
v 0.124862 1.675307 0.300779
v 0.124862 1.675307 -1.000341
v 0.163139 1.732594 0.300779
v 0.163139 1.732594 -1.000341
v 0.176581 1.800169 0.300779
v 0.176581 1.800169 -1.000341
v 0.163139 1.867743 0.300779
v 0.163139 1.867743 -1.000341
v 0.124862 1.925030 0.300779
v 0.124862 1.925030 -1.000341
v 0.067575 1.963308 0.300779
v 0.067575 1.963308 -1.000341
v 0.000000 1.976749 0.300779
v 0.000000 1.976749 -1.000341
v -0.067575 1.963308 0.300779
v -0.067575 1.963308 -1.000341
v -0.124862 1.925030 0.300779
v -0.124862 1.925030 -1.000341
v -0.163139 1.867743 0.300779
v -0.163139 1.867743 -1.000341
v -0.176581 1.800169 0.300779
v -0.176581 1.800169 -1.000341
v -0.163139 1.732594 0.300779
v -0.163139 1.732594 -1.000341
v -0.124862 1.675307 0.300779
v -0.124862 1.675307 -1.000341
v -0.067575 1.637029 0.300779
v -0.067575 1.637029 -1.000341
v -0.693830 -0.200000 0.700000
v -0.693830 0.730000 0.700000
v -0.693830 -0.200000 -0.700000
v -0.693830 0.730000 -0.700000
v 0.693830 -0.200000 0.700000
v 0.693830 0.730000 0.700000
v 0.693830 -0.200000 -0.700000
v 0.693830 0.730000 -0.700000
vn 0.1951 -0.0000 -0.9808
vn 0.5556 -0.0000 -0.8315
vn 0.8315 -0.0000 -0.5556
vn 0.9808 -0.0000 -0.1951
vn 0.9808 -0.0000 0.1951
vn 0.8315 -0.0000 0.5556
vn 0.5556 -0.0000 0.8315
vn 0.1951 -0.0000 0.9808
vn -0.1951 -0.0000 0.9808
vn -0.5556 -0.0000 0.8315
vn -0.8315 -0.0000 0.5556
vn -0.9808 -0.0000 0.1951
vn -0.9808 -0.0000 -0.1951
vn -0.8315 -0.0000 -0.5556
vn 0.7574 0.4126 -0.5061
vn -0.5556 -0.0000 -0.8315
vn -0.1951 -0.0000 -0.9808
vn -1.0000 -0.0000 -0.0000
vn 0.1777 0.4126 0.8934
vn 0.1777 0.4126 -0.8934
vn -0.8934 0.4126 -0.1777
vn 0.7574 0.4126 0.5061
vn -0.7574 0.4126 0.5061
vn -0.1777 0.4126 -0.8934
vn 0.8934 0.4126 -0.1777
vn -0.1777 0.4126 0.8934
vn -0.7574 0.4126 -0.5061
vn 0.5061 0.4126 -0.7574
vn 0.5061 0.4126 0.7574
vn -0.8934 0.4126 0.1777
vn 0.8934 0.4126 0.1777
vn -0.5061 0.4126 0.7574
vn -0.5061 0.4126 -0.7574
vn -0.5253 0.3261 0.7860
vn -0.5253 -0.7850 -0.3283
vn 0.8103 -0.2248 -0.5412
vn -0.8103 0.2246 0.5413
vn 0.9776 -0.0807 -0.1944
vn -0.9776 0.0807 0.1944
vn 0.9776 0.0807 0.1944
vn -0.9776 -0.0807 -0.1944
vn 0.8103 0.2246 0.5413
vn -0.8103 -0.2248 -0.5412
vn 0.5253 0.3261 0.7860
vn -0.5253 -0.3266 -0.7858
vn 0.1807 0.3769 0.9085
vn 0.1807 -0.3776 -0.9082
vn -0.1807 -0.3776 -0.9082
vn -0.1807 0.3769 0.9085
vn 0.5253 -0.3266 -0.7858
vn 0.9808 0.1951 -0.0000
vn 0.1807 0.9081 0.3778
vn 0.1807 -0.9072 -0.3798
vn -0.1807 -0.9072 -0.3798
vn -0.1807 0.9081 0.3778
vn 0.5253 -0.7850 -0.3283
vn -0.5253 0.7856 0.3270
vn 0.8103 -0.5408 -0.2259
vn -0.8103 0.5410 0.2253
vn 0.9776 -0.1943 -0.0810
vn -0.9776 0.1943 0.0810
vn 0.9776 0.1943 0.0810
vn -0.9776 -0.1943 -0.0810
vn 0.8103 0.5410 0.2253
vn -0.8103 -0.5408 -0.2259
vn 0.5253 0.7856 0.3270
vn -0.5250 0.7727 -0.3568
vn -0.9808 -0.1951 -0.0000
vn 0.8315 0.5556 -0.0000
vn -0.8315 -0.5556 -0.0000
vn 0.5556 0.8315 -0.0000
vn -0.5556 -0.8315 -0.0000
vn 0.1951 0.9808 -0.0000
vn 0.1951 -0.9808 -0.0000
vn -0.1951 -0.9808 -0.0000
vn -0.1951 0.9808 -0.0000
vn 0.5556 -0.8315 -0.0000
vn -0.5556 0.8315 -0.0000
vn 0.8315 -0.5556 -0.0000
vn -0.8315 0.5556 -0.0000
vn 0.9808 -0.1951 -0.0000
vn -0.9808 0.1951 -0.0000
vn -0.5249 -0.2893 0.8005
vn 0.8097 -0.5261 0.2600
vn -0.8100 0.5315 -0.2477
vn 0.9775 -0.1899 0.0915
vn -0.9775 0.1905 -0.0900
vn 0.9775 0.1905 -0.0900
vn -0.9775 -0.1899 0.0915
vn 0.8100 0.5315 -0.2477
vn -0.8097 -0.5261 0.2600
vn 0.5250 0.7727 -0.3568
vn -0.5242 -0.7597 0.3849
vn 0.1806 0.8936 -0.4109
vn 0.1801 -0.8744 0.4505
vn -0.1801 -0.8744 0.4505
vn -0.1806 0.8936 -0.4109
vn 0.5242 -0.7597 0.3849
vn 0.1807 0.3587 -0.9158
vn 0.1805 -0.3290 0.9269
vn -0.1805 -0.3290 0.9269
vn -0.1807 0.3587 -0.9158
vn 0.5249 -0.2893 0.8005
vn -0.5252 0.3096 -0.7927
vn 0.8101 -0.2036 0.5498
vn -0.8102 0.2121 -0.5464
vn 0.9776 -0.0745 0.1970
vn -0.9776 0.0755 -0.1965
vn 0.9776 0.0755 -0.1965
vn -0.9776 -0.0745 0.1969
vn 0.8102 0.2121 -0.5464
vn -0.8101 -0.2036 0.5498
vn 0.5252 0.3096 -0.7927
vn -0.0000 -1.0000 -0.0000
vn -0.0000 -0.0000 -1.0000
vn -0.0000 -0.0000 1.0000
vn 1.0000 -0.0000 -0.0000
vn -0.0000 1.0000 -0.0000
vt 1.000000 0.500000
vt 0.000000 0.500000
vt 1.000000 1.000000
vt 0.000000 1.000000
vt 0.937500 0.500000
vt 0.937500 1.000000
vt 0.875000 0.500000
vt 0.875000 1.000000
vt 0.812500 0.500000
vt 0.812500 1.000000
vt 0.750000 0.500000
vt 0.750000 1.000000
vt 0.687500 0.500000
vt 0.687500 1.000000
vt 0.625000 0.500000
vt 0.625000 1.000000
vt 0.562500 0.500000
vt 0.562500 1.000000
vt 0.500000 0.500000
vt 0.500000 1.000000
vt 0.437500 0.500000
vt 0.437500 1.000000
vt 0.375000 0.500000
vt 0.375000 1.000000
vt 0.312500 0.500000
vt 0.312500 1.000000
vt 0.250000 0.500000
vt 0.250000 1.000000
vt 0.187500 0.500000
vt 0.187500 1.000000
vt 0.125000 0.500000
vt 0.125000 1.000000
vt 0.062500 0.500000
vt 0.062500 1.000000
vt 1.000000 1.000000
vt 0.000000 1.000000
vt 0.937500 1.000000
vt 0.875000 1.000000
vt 0.812500 1.000000
vt 0.750000 1.000000
vt 0.687500 1.000000
vt 0.625000 1.000000
vt 0.562500 1.000000
vt 0.500000 1.000000
vt 0.437500 1.000000
vt 0.375000 1.000000
vt 0.312500 1.000000
vt 0.250000 1.000000
vt 0.187500 1.000000
vt 0.125000 1.000000
vt 0.062500 1.000000
vt 1.000000 1.000000
vt 0.000000 1.000000
vt 0.937500 1.000000
vt 0.875000 1.000000
vt 0.812500 1.000000
vt 0.750000 1.000000
vt 0.687500 1.000000
vt 0.625000 1.000000
vt 0.562500 1.000000
vt 0.500000 1.000000
vt 0.437500 1.000000
vt 0.375000 1.000000
vt 0.312500 1.000000
vt 0.250000 1.000000
vt 0.187500 1.000000
vt 0.125000 1.000000
vt 0.062500 1.000000
vt 1.000000 1.000000
vt 0.000000 1.000000
vt 0.937500 1.000000
vt 0.875000 1.000000
vt 0.812500 1.000000
vt 0.750000 1.000000
vt 0.687500 1.000000
vt 0.625000 1.000000
vt 0.562500 1.000000
vt 0.500000 1.000000
vt 0.437500 1.000000
vt 0.375000 1.000000
vt 0.312500 1.000000
vt 0.250000 1.000000
vt 0.187500 1.000000
vt 0.125000 1.000000
vt 0.062500 1.000000
vt 1.000000 1.000000
vt 0.000000 1.000000
vt 0.937500 1.000000
vt 0.875000 1.000000
vt 0.812500 1.000000
vt 0.750000 1.000000
vt 0.687500 1.000000
vt 0.625000 1.000000
vt 0.562500 1.000000
vt 0.500000 1.000000
vt 0.437500 1.000000
vt 0.375000 1.000000
vt 0.312500 1.000000
vt 0.250000 1.000000
vt 0.187500 1.000000
vt 0.125000 1.000000
vt 0.062500 1.000000
vt 1.000000 1.000000
vt 0.000000 1.000000
vt 0.937500 1.000000
vt 0.875000 1.000000
vt 0.812500 1.000000
vt 0.750000 1.000000
vt 0.687500 1.000000
vt 0.625000 1.000000
vt 0.562500 1.000000
vt 0.500000 1.000000
vt 0.437500 1.000000
vt 0.375000 1.000000
vt 0.312500 1.000000
vt 0.250000 1.000000
vt 0.187500 1.000000
vt 0.125000 1.000000
vt 0.062500 1.000000
vt 1.000000 1.000000
vt 0.000000 1.000000
vt 0.937500 1.000000
vt 0.875000 1.000000
vt 0.812500 1.000000
vt 0.750000 1.000000
vt 0.687500 1.000000
vt 0.625000 1.000000
vt 0.562500 1.000000
vt 0.500000 1.000000
vt 0.437500 1.000000
vt 0.375000 1.000000
vt 0.312500 1.000000
vt 0.250000 1.000000
vt 0.187500 1.000000
vt 0.125000 1.000000
vt 0.062500 1.000000
vt 1.000000 1.000000
vt 0.000000 1.000000
vt 0.937500 1.000000
vt 0.875000 1.000000
vt 0.812500 1.000000
vt 0.750000 1.000000
vt 0.687500 1.000000
vt 0.625000 1.000000
vt 0.562500 1.000000
vt 0.500000 1.000000
vt 0.437500 1.000000
vt 0.375000 1.000000
vt 0.312500 1.000000
vt 0.250000 1.000000
vt 0.187500 1.000000
vt 0.125000 1.000000
vt 0.062500 1.000000
vt 0.250000 0.490000
vt 1.000000 1.000000
vt 0.000000 1.000000
vt 0.341844 0.471731
vt 0.937500 1.000000
vt 0.419706 0.419706
vt 0.875000 1.000000
vt 0.471731 0.341844
vt 0.812500 1.000000
vt 0.490000 0.250000
vt 0.750000 1.000000
vt 0.471731 0.158156
vt 0.687500 1.000000
vt 0.419706 0.080294
vt 0.625000 1.000000
vt 0.341844 0.028269
vt 0.562500 1.000000
vt 0.250000 0.010000
vt 0.500000 1.000000
vt 0.158156 0.028269
vt 0.437500 1.000000
vt 0.080294 0.080294
vt 0.375000 1.000000
vt 0.028269 0.158156
vt 0.312500 1.000000
vt 0.010000 0.250000
vt 0.250000 1.000000
vt 0.028269 0.341844
vt 0.187500 1.000000
vt 0.080294 0.419706
vt 0.125000 1.000000
vt 0.158156 0.471731
vt 0.062500 1.000000
vt 1.000000 0.500000
vt 0.000000 0.500000
vt 1.000000 1.000000
vt 0.000000 1.000000
vt 0.937500 0.500000
vt 0.937500 1.000000
vt 0.875000 0.500000
vt 0.875000 1.000000
vt 0.812500 0.500000
vt 0.812500 1.000000
vt 0.750000 0.500000
vt 0.750000 1.000000
vt 0.687500 0.500000
vt 0.687500 1.000000
vt 0.625000 0.500000
vt 0.625000 1.000000
vt 0.562500 0.500000
vt 0.562500 1.000000
vt 0.500000 0.500000
vt 0.500000 1.000000
vt 0.437500 0.500000
vt 0.437500 1.000000
vt 0.375000 0.500000
vt 0.375000 1.000000
vt 0.312500 0.500000
vt 0.312500 1.000000
vt 0.250000 0.500000
vt 0.250000 1.000000
vt 0.187500 0.500000
vt 0.187500 1.000000
vt 0.125000 0.500000
vt 0.125000 1.000000
vt 0.062500 0.500000
vt 0.062500 1.000000
vt 1.000000 0.500000
vt 0.000000 0.500000
vt 0.750000 0.490000
vt 1.000000 1.000000
vt 0.000000 1.000000
vt 0.937500 0.500000
vt 0.841844 0.471731
vt 0.937500 1.000000
vt 0.875000 0.500000
vt 0.919706 0.419706
vt 0.875000 1.000000
vt 0.812500 0.500000
vt 0.971731 0.341844
vt 0.812500 1.000000
vt 0.750000 0.500000
vt 0.990000 0.250000
vt 0.750000 1.000000
vt 0.687500 0.500000
vt 0.971731 0.158156
vt 0.687500 1.000000
vt 0.625000 0.500000
vt 0.919706 0.080294
vt 0.625000 1.000000
vt 0.562500 0.500000
vt 0.841844 0.028269
vt 0.562500 1.000000
vt 0.500000 0.500000
vt 0.750000 0.010000
vt 0.500000 1.000000
vt 0.437500 0.500000
vt 0.658156 0.028269
vt 0.437500 1.000000
vt 0.375000 0.500000
vt 0.580294 0.080294
vt 0.375000 1.000000
vt 0.312500 0.500000
vt 0.528269 0.158156
vt 0.312500 1.000000
vt 0.250000 0.500000
vt 0.510000 0.250000
vt 0.250000 1.000000
vt 0.187500 0.500000
vt 0.528269 0.341844
vt 0.187500 1.000000
vt 0.125000 0.500000
vt 0.580294 0.419706
vt 0.125000 1.000000
vt 0.062500 0.500000
vt 0.658156 0.471731
vt 0.062500 1.000000
vt 0.375000 0.000000
vt 0.375000 1.000000
vt 0.125000 0.750000
vt 0.625000 0.000000
vt 0.625000 1.000000
vt 0.875000 0.750000
vt 0.375000 0.250000
vt 0.125000 0.500000
vt 0.625000 0.250000
vt 0.875000 0.500000
vt 0.375000 0.750000
vt 0.625000 0.750000
vt 0.375000 0.500000
vt 0.625000 0.500000
s 0
f 1/1/1 2/3/1 4/6/1 3/5/1
f 3/5/2 4/6/2 6/8/2 5/7/2
f 5/7/3 6/8/3 8/10/3 7/9/3
f 7/9/4 8/10/4 10/12/4 9/11/4
f 9/11/5 10/12/5 12/14/5 11/13/5
f 11/13/6 12/14/6 14/16/6 13/15/6
f 13/15/7 14/16/7 16/18/7 15/17/7
f 15/17/8 16/18/8 18/20/8 17/19/8
f 17/19/9 18/20/9 20/22/9 19/21/9
f 19/21/10 20/22/10 22/24/10 21/23/10
f 21/23/11 22/24/11 24/26/11 23/25/11
f 23/25/12 24/26/12 26/28/12 25/27/12
f 25/27/13 26/28/13 28/30/13 27/29/13
f 27/29/14 28/30/14 30/32/14 29/31/14
f 8/10/15 6/8/15 35/38/15 36/39/15
f 29/31/16 30/32/16 32/34/16 31/33/16
f 31/33/17 32/34/17 2/4/17 1/2/17
f 225/271/18 226/274/18 228/279/18 227/277/18
f 38/41/5 37/40/5 53/57/5 54/58/5
f 18/20/19 16/18/19 40/43/19 41/44/19
f 4/6/20 2/3/20 33/35/20 34/37/20
f 28/30/21 26/28/21 45/48/21 46/49/21
f 14/16/22 12/14/22 38/41/22 39/42/22
f 24/26/23 22/24/23 43/46/23 44/47/23
f 2/4/24 32/34/24 48/51/24 33/36/24
f 10/12/25 8/10/25 36/39/25 37/40/25
f 20/22/26 18/20/26 41/44/26 42/45/26
f 30/32/27 28/30/27 46/49/27 47/50/27
f 6/8/28 4/6/28 34/37/28 35/38/28
f 16/18/29 14/16/29 39/42/29 40/43/29
f 26/28/30 24/26/30 44/47/30 45/48/30
f 12/14/31 10/12/31 37/40/31 38/41/31
f 22/24/32 20/22/32 42/45/32 43/46/32
f 32/34/33 30/32/33 47/50/33 48/51/33
f 59/63/34 58/62/34 74/79/34 75/80/34
f 46/49/13 45/48/13 61/65/13 62/66/13
f 39/42/6 38/41/6 54/58/6 55/59/6
f 47/50/14 46/49/14 62/66/14 63/67/14
f 40/43/7 39/42/7 55/59/7 56/60/7
f 48/51/16 47/50/16 63/67/16 64/68/16
f 41/44/8 40/43/8 56/60/8 57/61/8
f 34/37/1 33/35/1 49/52/1 50/54/1
f 33/36/17 48/51/17 64/68/17 49/53/17
f 42/45/9 41/44/9 57/61/9 58/62/9
f 35/38/2 34/37/2 50/54/2 51/55/2
f 43/46/10 42/45/10 58/62/10 59/63/10
f 36/39/3 35/38/3 51/55/3 52/56/3
f 44/47/11 43/46/11 59/63/11 60/64/11
f 37/40/4 36/39/4 52/56/4 53/57/4
f 45/48/12 44/47/12 60/64/12 61/65/12
f 80/85/35 79/84/35 95/101/35 96/102/35
f 52/56/36 51/55/36 67/72/36 68/73/36
f 60/64/37 59/63/37 75/80/37 76/81/37
f 53/57/38 52/56/38 68/73/38 69/74/38
f 61/65/39 60/64/39 76/81/39 77/82/39
f 54/58/40 53/57/40 69/74/40 70/75/40
f 62/66/41 61/65/41 77/82/41 78/83/41
f 55/59/42 54/58/42 70/75/42 71/76/42
f 63/67/43 62/66/43 78/83/43 79/84/43
f 56/60/44 55/59/44 71/76/44 72/77/44
f 64/68/45 63/67/45 79/84/45 80/85/45
f 57/61/46 56/60/46 72/77/46 73/78/46
f 50/54/47 49/52/47 65/69/47 66/71/47
f 49/53/48 64/68/48 80/85/48 65/70/48
f 58/62/49 57/61/49 73/78/49 74/79/49
f 51/55/50 50/54/50 66/71/50 67/72/50
f 86/92/51 85/91/51 101/108/51 102/109/51
f 73/78/52 72/77/52 88/94/52 89/95/52
f 66/71/53 65/69/53 81/86/53 82/88/53
f 65/70/54 80/85/54 96/102/54 81/87/54
f 74/79/55 73/78/55 89/95/55 90/96/55
f 67/72/56 66/71/56 82/88/56 83/89/56
f 75/80/57 74/79/57 90/96/57 91/97/57
f 68/73/58 67/72/58 83/89/58 84/90/58
f 76/81/59 75/80/59 91/97/59 92/98/59
f 69/74/60 68/73/60 84/90/60 85/91/60
f 77/82/61 76/81/61 92/98/61 93/99/61
f 70/75/62 69/74/62 85/91/62 86/92/62
f 78/83/63 77/82/63 93/99/63 94/100/63
f 71/76/64 70/75/64 86/92/64 87/93/64
f 79/84/65 78/83/65 94/100/65 95/101/65
f 72/77/66 71/76/66 87/93/66 88/94/66
f 107/114/67 106/113/67 122/130/67 123/131/67
f 94/100/68 93/99/68 109/116/68 110/117/68
f 87/93/69 86/92/69 102/109/69 103/110/69
f 95/101/70 94/100/70 110/117/70 111/118/70
f 88/94/71 87/93/71 103/110/71 104/111/71
f 96/102/72 95/101/72 111/118/72 112/119/72
f 89/95/73 88/94/73 104/111/73 105/112/73
f 82/88/74 81/86/74 97/103/74 98/105/74
f 81/87/75 96/102/75 112/119/75 97/104/75
f 90/96/76 89/95/76 105/112/76 106/113/76
f 83/89/77 82/88/77 98/105/77 99/106/77
f 91/97/78 90/96/78 106/113/78 107/114/78
f 84/90/79 83/89/79 99/106/79 100/107/79
f 92/98/80 91/97/80 107/114/80 108/115/80
f 85/91/81 84/90/81 100/107/81 101/108/81
f 93/99/82 92/98/82 108/115/82 109/116/82
f 128/136/83 127/135/83 143/152/83 144/153/83
f 100/107/84 99/106/84 115/123/84 116/124/84
f 108/115/85 107/114/85 123/131/85 124/132/85
f 101/108/86 100/107/86 116/124/86 117/125/86
f 109/116/87 108/115/87 124/132/87 125/133/87
f 102/109/88 101/108/88 117/125/88 118/126/88
f 110/117/89 109/116/89 125/133/89 126/134/89
f 103/110/90 102/109/90 118/126/90 119/127/90
f 111/118/91 110/117/91 126/134/91 127/135/91
f 104/111/92 103/110/92 119/127/92 120/128/92
f 112/119/93 111/118/93 127/135/93 128/136/93
f 105/112/94 104/111/94 120/128/94 121/129/94
f 98/105/95 97/103/95 113/120/95 114/122/95
f 97/104/96 112/119/96 128/136/96 113/121/96
f 106/113/97 105/112/97 121/129/97 122/130/97
f 99/106/98 98/105/98 114/122/98 115/123/98
f 142/151/12 141/150/12 157/180/12 158/182/12
f 121/129/99 120/128/99 136/145/99 137/146/99
f 114/122/100 113/120/100 129/137/100 130/139/100
f 113/121/101 128/136/101 144/153/101 129/138/101
f 122/130/102 121/129/102 137/146/102 138/147/102
f 115/123/103 114/122/103 130/139/103 131/140/103
f 123/131/104 122/130/104 138/147/104 139/148/104
f 116/124/105 115/123/105 131/140/105 132/141/105
f 124/132/106 123/131/106 139/148/106 140/149/106
f 117/125/107 116/124/107 132/141/107 133/142/107
f 125/133/108 124/132/108 140/149/108 141/150/108
f 118/126/109 117/125/109 133/142/109 134/143/109
f 126/134/110 125/133/110 141/150/110 142/151/110
f 119/127/111 118/126/111 134/143/111 135/144/111
f 127/135/112 126/134/112 142/151/112 143/152/112
f 120/128/113 119/127/113 135/144/113 136/145/113
f 146/157/114 145/154/114 160/185/114 159/183/114 158/181/114 157/179/114 156/177/114 155/175/114 154/173/114 153/171/114 152/169/114 151/167/114 150/165/114 149/163/114 148/161/114 147/159/114
f 135/144/3 134/143/3 150/166/3 151/168/3
f 143/152/11 142/151/11 158/182/11 159/184/11
f 136/145/2 135/144/2 151/168/2 152/170/2
f 144/153/10 143/152/10 159/184/10 160/186/10
f 137/146/1 136/145/1 152/170/1 153/172/1
f 130/139/8 129/137/8 145/155/8 146/158/8
f 129/138/9 144/153/9 160/186/9 145/156/9
f 138/147/17 137/146/17 153/172/17 154/174/17
f 131/140/7 130/139/7 146/158/7 147/160/7
f 139/148/16 138/147/16 154/174/16 155/176/16
f 132/141/6 131/140/6 147/160/6 148/162/6
f 140/149/14 139/148/14 155/176/14 156/178/14
f 133/142/5 132/141/5 148/162/5 149/164/5
f 141/150/13 140/149/13 156/178/13 157/180/13
f 134/143/4 133/142/4 149/164/4 150/166/4
f 161/187/1 162/189/1 164/192/1 163/191/1
f 163/191/2 164/192/2 166/194/2 165/193/2
f 165/193/3 166/194/3 168/196/3 167/195/3
f 167/195/4 168/196/4 170/198/4 169/197/4
f 169/197/5 170/198/5 172/200/5 171/199/5
f 171/199/6 172/200/6 174/202/6 173/201/6
f 173/201/7 174/202/7 176/204/7 175/203/7
f 175/203/8 176/204/8 178/206/8 177/205/8
f 177/205/9 178/206/9 180/208/9 179/207/9
f 179/207/10 180/208/10 182/210/10 181/209/10
f 181/209/11 182/210/11 184/212/11 183/211/11
f 183/211/12 184/212/12 186/214/12 185/213/12
f 185/213/13 186/214/13 188/216/13 187/215/13
f 187/215/14 188/216/14 190/218/14 189/217/14
f 189/217/16 190/218/16 192/220/16 191/219/16
f 191/219/17 192/220/17 162/190/17 161/188/17
f 196/228/115 194/225/115 224/270/115 222/267/115 220/264/115 218/261/115 216/258/115 214/255/115 212/252/115 210/249/115 208/246/115 206/243/115 204/240/115 202/237/115 200/234/115 198/231/115
f 193/221/74 194/224/74 196/228/74 195/226/74
f 195/226/77 196/228/77 198/231/77 197/229/77
f 197/229/79 198/231/79 200/234/79 199/232/79
f 199/232/81 200/234/81 202/237/81 201/235/81
f 201/235/51 202/237/51 204/240/51 203/238/51
f 203/238/69 204/240/69 206/243/69 205/241/69
f 205/241/71 206/243/71 208/246/71 207/244/71
f 207/244/73 208/246/73 210/249/73 209/247/73
f 209/247/76 210/249/76 212/252/76 211/250/76
f 211/250/78 212/252/78 214/255/78 213/253/78
f 213/253/80 214/255/80 216/258/80 215/256/80
f 215/256/82 216/258/82 218/261/82 217/259/82
f 217/259/68 218/261/68 220/264/68 219/262/68
f 219/262/70 220/264/70 222/267/70 221/265/70
f 221/265/72 222/267/72 224/270/72 223/268/72
f 223/268/75 224/270/75 194/225/75 193/222/75
f 193/223/116 195/227/116 197/230/116 199/233/116 201/236/116 203/239/116 205/242/116 207/245/116 209/248/116 211/251/116 213/254/116 215/257/116 217/260/116 219/263/116 221/266/116 223/269/116
f 227/277/115 228/279/115 232/284/115 231/283/115
f 231/283/117 232/284/117 230/282/117 229/281/117
f 229/281/116 230/282/116 226/275/116 225/272/116
f 227/278/114 231/283/114 229/281/114 225/273/114
f 232/284/118 228/280/118 226/276/118 230/282/118
