# Blender 3.5.0
# www.blender.org
g Cabinet
v -0.238307 0.699033 0.250126
v -0.238307 0.699033 -0.250126
v 0.238307 0.699033 0.250126
v 0.238307 0.699033 -0.250126
v 0.205421 0.130093 -0.250126
v -0.205421 0.130093 -0.250126
v -0.205421 0.130093 0.250126
v 0.205421 0.130093 0.250126
v -0.238307 0.000000 -0.250126
v -0.238307 0.000000 0.250126
v -0.205421 0.000000 -0.250126
v 0.238307 0.000000 0.250126
v 0.238307 0.000000 -0.250126
v 0.205421 0.000000 0.250126
v 0.205421 0.000000 -0.250126
v -0.205421 0.000000 0.250126
v -0.238307 0.130093 -0.216974
v -0.238307 0.130093 0.216974
v 0.238307 0.130093 0.216974
v 0.238307 0.130093 -0.216974
v -0.205421 0.130093 -0.216974
v -0.205421 0.130093 0.216974
v 0.205421 0.130093 -0.216974
v 0.205421 0.130093 0.216974
v -0.238307 0.000000 -0.216974
v -0.238307 0.000000 0.216974
v 0.238307 0.000000 0.216974
v 0.238307 0.000000 -0.216974
v -0.205421 0.000000 -0.216974
v -0.205421 0.000000 0.216974
v 0.205421 0.000000 -0.216974
v 0.205421 0.000000 0.216974
v 0.238295 0.628322 -0.195433
v 0.249284 0.628322 -0.193622
v 0.238295 0.623549 -0.194484
v 0.249284 0.624242 -0.192810
v 0.238295 0.619502 -0.191780
v 0.249284 0.620783 -0.190499
v 0.238295 0.616798 -0.187733
v 0.249284 0.618471 -0.187040
v 0.238295 0.615849 -0.182960
v 0.249284 0.617660 -0.182960
v 0.238295 0.616798 -0.178186
v 0.249284 0.618471 -0.178879
v 0.238295 0.619502 -0.174140
v 0.249284 0.620783 -0.175420
v 0.238295 0.623549 -0.171436
v 0.249284 0.624242 -0.173109
v 0.238295 0.628322 -0.170486
v 0.249284 0.628322 -0.172297
v 0.238295 0.633095 -0.171436
v 0.249284 0.632402 -0.173109
v 0.238295 0.637142 -0.174140
v 0.249284 0.635861 -0.175420
v 0.238295 0.639846 -0.178186
v 0.249284 0.638173 -0.178879
v 0.238295 0.640795 -0.182960
v 0.249284 0.638984 -0.182960
v 0.238295 0.639846 -0.187733
v 0.249284 0.638173 -0.187040
v 0.238295 0.637142 -0.191780
v 0.249284 0.635861 -0.190499
v 0.238295 0.633095 -0.194484
v 0.249284 0.632402 -0.192810
vn -0.0000 1.0000 -0.0000
vn -1.0000 -0.0000 -0.0000
vn 1.0000 -0.0000 -0.0000
vn -0.0000 -1.0000 -0.0000
vn -0.0000 -0.0000 -1.0000
vn -0.0000 -0.0000 1.0000
vn -0.0000 -0.1264 -0.9920
vn 0.1596 -0.1926 -0.9682
vn 0.1596 -0.5485 -0.8208
vn 0.1596 -0.8208 -0.5484
vn 0.1596 -0.9682 -0.1926
vn 0.1596 -0.9682 0.1926
vn 0.1596 -0.8208 0.5484
vn 0.1596 -0.5485 0.8208
vn 0.1596 -0.1926 0.9682
vn 0.1596 0.1926 0.9682
vn 0.1596 0.5485 0.8208
vn 0.1596 0.8208 0.5484
vn 0.1596 0.9682 0.1926
vn 0.1596 0.9682 -0.1926
vn 0.1596 0.8208 -0.5485
vn 0.1596 0.5485 -0.8208
vn 0.1596 0.1926 -0.9682
vt 0.875000 0.750000
vt 0.625000 0.000000
vt 0.625000 1.000000
vt 0.875000 0.500000
vt 0.625000 0.250000
vt 0.625000 0.750000
vt 0.625000 0.500000
vt 0.375000 0.482751
vt 0.357751 0.500000
vt 0.375000 0.267249
vt 0.142249 0.500000
vt 0.142249 0.750000
vt 0.375000 0.982751
vt 0.375000 0.767249
vt 0.357751 0.750000
vt 0.375000 0.250000
vt 0.125000 0.500000
vt 0.125000 0.750000
vt 0.375000 0.000000
vt 0.375000 1.000000
vt 0.375000 0.267249
vt 0.142249 0.500000
vt 0.375000 0.750000
vt 0.375000 0.500000
vt 0.375000 0.767249
vt 0.357751 0.750000
vt 0.000000 0.000000
vt 0.375000 0.482751
vt 0.357751 0.500000
vt 0.142249 0.750000
vt 0.375000 0.982751
vt 0.375000 0.233432
vt 0.375000 0.016568
vt 0.375000 0.733432
vt 0.000000 0.000000
vt 0.375000 0.516568
vt 0.142249 0.516568
vt 0.142249 0.733432
vt 0.357751 0.516568
vt 0.357751 0.733432
vt 0.000000 0.000000
vt 0.375000 0.233432
vt 0.125000 0.516568
vt 0.125000 0.733432
vt 0.375000 0.016568
vt 0.375000 0.733432
vt 0.000000 0.000000
vt 0.375000 0.516568
vt 0.142249 0.516568
vt 0.142249 0.733432
vt 0.357751 0.516568
vt 0.357751 0.733432
vt 0.000000 0.000000
vt 1.000000 0.500000
vt 0.000000 0.500000
vt 0.750000 0.490000
vt 1.000000 0.720239
vt 0.250000 0.556028
vt 0.000000 0.720239
vt 0.937500 0.500000
vt 0.841844 0.471731
vt 0.937500 0.720239
vt 0.367112 0.532733
vt 0.875000 0.500000
vt 0.919706 0.419706
vt 0.875000 0.720239
vt 0.466394 0.466394
vt 0.812500 0.500000
vt 0.971731 0.341844
vt 0.812500 0.720239
vt 0.532732 0.367111
vt 0.750000 0.500000
vt 0.990000 0.250000
vt 0.750000 0.720239
vt 0.556029 0.250000
vt 0.687500 0.500000
vt 0.971731 0.158156
vt 0.687500 0.720239
vt 0.532734 0.132888
vt 0.625000 0.500000
vt 0.919706 0.080294
vt 0.625000 0.720239
vt 0.466395 0.033605
vt 0.562500 0.500000
vt 0.841844 0.028269
vt 0.562500 0.720239
vt 0.367112 -0.032734
vt 0.500000 0.500000
vt 0.750000 0.010000
vt 0.500000 0.720239
vt 0.250000 -0.056028
vt 0.437500 0.500000
vt 0.658156 0.028269
vt 0.437500 0.720239
vt 0.132888 -0.032734
vt 0.375000 0.500000
vt 0.580294 0.080294
vt 0.375000 0.720239
vt 0.033606 0.033605
vt 0.312500 0.500000
vt 0.528269 0.158156
vt 0.312500 0.720239
vt -0.032733 0.132888
vt 0.250000 0.500000
vt 0.510000 0.250000
vt 0.250000 0.720239
vt -0.056027 0.250000
vt 0.187500 0.500000
vt 0.528269 0.341844
vt 0.187500 0.720239
vt -0.032735 0.367111
vt 0.125000 0.500000
vt 0.580294 0.419706
vt 0.033606 0.466394
vt 0.125000 0.720239
vt 0.062500 0.500000
vt 0.658156 0.471731
vt 0.132888 0.532733
vt 0.062500 0.720239
s 0
f 2/4/1 1/1/1 3/6/1 4/7/1
f 23/39/2 5/9/2 15/29/2 31/51/2
f 4/7/3 3/6/3 12/23/3 27/46/3 19/34/3 20/36/3 28/48/3 13/24/3
f 32/52/4 27/46/4 12/23/4 14/26/4
f 26/44/4 30/50/4 16/30/4 10/18/4
f 6/10/5 11/21/5 9/16/5 2/5/5 4/7/5 13/24/5 15/28/5 5/8/5
f 22/38/3 7/12/3 16/30/3 30/50/3
f 1/2/2 2/5/2 9/16/2 25/42/2 17/32/2 18/33/2 26/45/2 10/19/2
f 22/38/4 18/33/4 17/32/4 21/37/4 6/11/4 5/9/4 23/39/4 20/36/4 19/35/4 24/40/4 8/15/4 7/12/4
f 3/6/6 1/3/6 10/20/6 16/31/6 7/13/6 8/14/6 14/25/6 12/23/6
f 6/11/3 21/37/3 29/49/3 11/22/3
f 25/43/6 29/49/6 21/37/6 17/32/6
f 9/17/4 11/22/4 29/49/4 25/43/4
f 23/39/6 31/51/6 28/48/6 20/36/6
f 15/29/4 13/24/4 28/48/4 31/51/4
f 18/33/5 22/38/5 30/50/5 26/45/5
f 8/15/2 24/40/2 32/52/2 14/26/2
f 32/53/7 24/41/7 19/35/7 27/47/7 14/27/7
f 33/54/8 34/57/8 36/62/8 35/60/8
f 35/60/9 36/62/9 38/66/9 37/64/9
f 37/64/10 38/66/10 40/70/10 39/68/10
f 39/68/11 40/70/11 42/74/11 41/72/11
f 41/72/12 42/74/12 44/78/12 43/76/12
f 43/76/13 44/78/13 46/82/13 45/80/13
f 45/80/14 46/82/14 48/86/14 47/84/14
f 47/84/15 48/86/15 50/90/15 49/88/15
f 49/88/16 50/90/16 52/94/16 51/92/16
f 51/92/17 52/94/17 54/98/17 53/96/17
f 53/96/18 54/98/18 56/102/18 55/100/18
f 55/100/19 56/102/19 58/106/19 57/104/19
f 57/104/20 58/106/20 60/110/20 59/108/20
f 59/108/21 60/110/21 62/115/21 61/112/21
f 36/63/3 34/58/3 64/118/3 62/114/3 60/111/3 58/107/3 56/103/3 54/99/3 52/95/3 50/91/3 48/87/3 46/83/3 44/79/3 42/75/3 40/71/3 38/67/3
f 61/112/22 62/115/22 64/119/22 63/116/22
f 63/116/23 64/119/23 34/59/23 33/55/23
f 33/56/2 35/61/2 37/65/2 39/69/2 41/73/2 43/77/2 45/81/2 47/85/2 49/89/2 51/93/2 53/97/2 55/101/2 57/105/2 59/109/2 61/113/2 63/117/2
