# Blender 3.5.0
# www.blender.org
g Trashcan
v 0.165377 0.000000 0.217448
v 0.171943 0.664810 0.223986
v -0.165706 0.000000 0.217448
v -0.166472 0.664810 0.223986
v 0.165377 -0.000000 -0.217448
v 0.171943 0.664810 -0.223986
v -0.165706 -0.000000 -0.217448
v -0.166472 0.664810 -0.223986
v -0.229469 0.634962 0.253319
v -0.229469 1.046786 0.253319
v -0.270898 0.634962 0.253319
v -0.270898 1.046786 0.253319
v -0.229469 0.634962 -0.254135
v -0.229469 1.046786 -0.254135
v -0.270898 0.634962 -0.254135
v -0.270898 1.046786 -0.254135
v -0.179292 0.458983 0.235019
v -0.179292 0.458983 -0.235019
v -0.184680 0.640998 0.241987
v -0.184680 0.640998 -0.241987
v -0.189615 0.458702 0.235019
v -0.189615 0.458702 -0.235019
v -0.229479 0.634975 0.241987
v -0.229479 0.634975 -0.241987
v 0.190856 0.664810 0.242899
v -0.185385 0.664810 0.242899
v -0.185385 0.664810 -0.242899
v 0.190856 0.664810 -0.242899
v 0.171943 0.664810 0.223986
v -0.166472 0.664810 0.223986
v 0.171943 0.664810 -0.223986
v -0.166472 0.664810 -0.223986
v 0.151715 0.014235 0.203857
v -0.146244 0.014235 0.203857
v 0.151715 0.014235 -0.203857
v -0.146244 0.014235 -0.203857
v -0.289407 0.942647 0.253319
v -0.289407 0.942647 -0.254135
v -0.289407 0.739102 0.253319
v -0.289407 0.739102 -0.254135
vn -0.0000 -0.0383 -0.9993
vn -0.9996 -0.0296 -0.0000
vn 0.9993 -0.0383 -0.0000
vn -0.0000 -0.0383 0.9993
vn -0.0000 -1.0000 -0.0000
vn -0.0000 -0.0000 -0.0000
vn -0.9846 0.1750 -0.0000
vn -0.0000 1.0000 -0.0000
vn -0.1332 0.9911 -0.0000
vn -0.9754 -0.2206 -0.0000
vn 0.0044 -0.0383 0.9993
vn 0.0272 -0.9996 -0.0000
vn 0.0044 -0.0383 -0.9993
vn -0.0000 0.0309 0.9995
vn -0.0000 -0.0000 -1.0000
vn -0.0000 0.0309 -0.9995
vn -0.9995 0.0311 -0.0000
vn 0.9995 0.0311 -0.0000
vn -1.0000 -0.0000 -0.0000
vn -0.9846 -0.1750 -0.0000
vn 1.0000 -0.0000 -0.0000
vn -0.0000 -0.0000 1.0000
vt 0.125000 0.750000
vt 0.865267 0.737433
vt 0.125000 0.500000
vt 0.375000 0.250000
vt 0.865267 0.512567
vt 0.375000 0.750000
vt 0.634733 0.737433
vt 0.375000 0.500000
vt 0.634733 0.512567
vt 0.125000 0.750000
vt 0.875000 0.750000
vt 0.125000 0.500000
vt 0.375000 0.250000
vt 0.875000 0.500000
vt 0.625000 0.250000
vt 0.375000 0.750000
vt 0.625000 0.750000
vt 0.375000 0.500000
vt 0.625000 0.500000
vt 0.547599 0.250000
vt 0.547599 0.500000
vt 0.616046 0.250000
vt 0.616046 0.500000
vt 0.547599 0.250000
vt 0.547599 0.500000
vt 0.616046 0.250000
vt 0.616046 0.500000
vt 0.875000 0.750000
vt 0.625000 0.250000
vt 0.875000 0.500000
vt 0.625000 0.500000
vt 0.625000 0.750000
vt 0.865267 0.737433
vt 0.865267 0.512567
vt 0.634733 0.737433
vt 0.634733 0.512567
vt 0.865267 0.737433
vt 0.865267 0.512567
vt 0.634733 0.737433
vt 0.634733 0.512567
vt 0.561782 0.250000
vt 0.561782 0.500000
vt 0.438218 0.250000
vt 0.438218 0.500000
s 0
f 7/8/1 18/21/1 20/23/1 27/31/1 28/32/1 5/6/1
f 19/22/2 26/29/2 27/31/2 20/23/2
f 1/1/3 5/6/3 28/32/3 25/28/3
f 3/4/4 1/1/4 25/28/4 26/29/4 19/22/4 17/20/4
f 3/3/5 7/8/5 5/6/5 1/1/5
f 8/9/6 4/5/6 30/34/6 32/36/6
f 37/41/7 12/15/7 16/19/7 38/42/7
f 11/12/5 15/18/5 13/16/5 9/10/5
f 16/19/8 12/14/8 10/11/8 14/17/8
f 3/4/2 17/20/2 18/21/2 7/8/2
f 19/22/9 20/23/9 24/27/9 23/26/9
f 21/24/10 23/26/10 24/27/10 22/25/10
f 17/20/11 19/22/11 23/26/11 21/24/11
f 18/21/12 17/20/12 21/24/12 22/25/12
f 20/23/13 18/21/13 22/25/13 24/27/13
f 2/2/8 4/5/8 26/30/8 25/28/8
f 4/5/8 8/9/8 27/31/8 26/30/8
f 8/9/8 6/7/8 28/32/8 27/31/8
f 6/7/8 2/2/8 25/28/8 28/32/8
f 31/35/14 32/36/14 36/40/14 35/39/14
f 6/7/8 8/9/15 32/36/8 31/35/15
f 4/5/8 2/2/15 29/33/8 30/34/15
f 2/2/6 6/7/6 31/35/6 29/33/6
f 36/40/8 34/38/8 33/37/8 35/39/8
f 30/34/16 29/33/16 33/37/16 34/38/16
f 29/33/17 31/35/17 35/39/17 33/37/17
f 32/36/18 30/34/18 34/38/18 36/40/18
f 39/43/19 37/41/19 38/42/19 40/44/19
f 15/18/15 40/44/15 38/42/15 16/19/15 14/17/15 13/16/15
f 11/13/20 39/43/20 40/44/20 15/18/20
f 9/10/21 13/16/21 14/17/21 10/11/21
f 11/13/22 9/10/22 10/11/22 12/15/22 37/41/22 39/43/22
