# Blender 3.5.0
# www.blender.org
g Turntable_Bridge
v 0.000000 0.476200 0.000000
v 0.000000 2.476200 0.000000
v 2.517495 0.476203 0.000000
v 1.870139 2.476202 0.000000
v 2.517495 3.288669 0.000000
v 2.121048 3.288668 0.000000
v 2.361291 3.288669 0.098360
v 2.361291 3.288669 0.000000
v 2.234037 3.288668 0.000000
v 2.234037 3.288668 0.098360
v 2.361291 7.579182 0.098360
v 2.361291 7.579182 0.000000
v 2.234037 7.504155 0.000000
v 2.234037 7.504155 0.098360
v 1.004969 8.682840 0.098360
v 1.004969 8.682840 0.000000
v 1.397241 8.216050 0.000000
v 1.397241 8.216050 0.098360
v 0.000000 8.682840 0.098360
v 0.000000 8.682840 0.000000
v 0.000000 8.216050 0.000000
v 0.000000 8.216050 0.098360
v 0.000000 0.476200 3.701125
v 2.517495 0.476203 3.701125
v 0.000000 1.281713 7.264030
v 2.517495 1.281716 7.264030
v 2.517495 2.476203 11.814905
v 1.870139 2.476202 11.814905
v 2.517495 3.288669 11.814905
v 2.121048 3.288668 11.814905
v 0.000000 2.476200 11.939363
v 2.517495 2.476203 11.939363
v 0.000000 1.281713 11.939363
v 2.517495 1.281716 11.939363
v -2.517495 0.476203 0.000000
v -1.870139 2.476202 0.000000
v -2.517495 3.288669 0.000000
v -2.121048 3.288668 0.000000
v -2.361291 3.288669 0.098360
v -2.361291 3.288669 0.000000
v -2.234037 3.288668 0.000000
v -2.234037 3.288668 0.098360
v -2.361291 7.579182 0.098360
v -2.361291 7.579182 0.000000
v -2.234037 7.504155 0.000000
v -2.234037 7.504155 0.098360
v -1.004969 8.682840 0.098360
v -1.004969 8.682840 0.000000
v -1.397241 8.216050 0.000000
v -1.397241 8.216050 0.098360
v -2.517495 0.476203 3.701125
v -2.517495 1.281716 7.264030
v -2.517495 2.476203 11.814905
v -1.870139 2.476202 11.814905
v -2.517495 3.288669 11.814905
v -2.121048 3.288668 11.814905
v -2.517495 2.476203 11.939363
v -2.517495 1.281716 11.939363
v 2.361291 3.288669 -0.098360
v 2.234037 3.288668 -0.098360
v 2.361291 7.579182 -0.098360
v 2.234037 7.504155 -0.098360
v 1.004969 8.682840 -0.098360
v 1.397241 8.216050 -0.098360
v 0.000000 8.682840 -0.098360
v 0.000000 8.216050 -0.098360
v 0.000000 0.476200 -3.701125
v 2.517495 0.476203 -3.701125
v 0.000000 1.281713 -7.264030
v 2.517495 1.281716 -7.264030
v 2.517495 2.476203 -11.814905
v 1.870139 2.476202 -11.814905
v 2.517495 3.288669 -11.814905
v 2.121048 3.288668 -11.814905
v 0.000000 2.476200 -11.939363
v 2.517495 2.476203 -11.939363
v 0.000000 1.281713 -11.939363
v 2.517495 1.281716 -11.939363
v -2.361291 3.288669 -0.098360
v -2.234037 3.288668 -0.098360
v -2.361291 7.579182 -0.098360
v -2.234037 7.504155 -0.098360
v -1.004969 8.682840 -0.098360
v -1.397241 8.216050 -0.098360
v -2.517495 0.476203 -3.701125
v -2.517495 1.281716 -7.264030
v -2.517495 2.476203 -11.814905
v -1.870139 2.476202 -11.814905
v -2.517495 3.288669 -11.814905
v -2.121048 3.288668 -11.814905
v -2.517495 2.476203 -11.939363
v -2.517495 1.281716 -11.939363
vn -0.0000 -0.0000 -1.0000
vn -0.0000 -1.0000 -0.0000
vn -0.0000 1.0000 -0.0000
vn -0.0000 -0.0000 1.0000
vn -1.0000 -0.0000 -0.0000
vn 1.0000 -0.0000 -0.0000
vn -0.6480 -0.7617 -0.0000
vn 0.6312 0.7757 -0.0000
vn -0.0000 -0.9754 0.2205
vn -0.9555 0.2951 -0.0000
vn 0.6480 -0.7617 -0.0000
vn -0.6312 0.7757 -0.0000
vn 0.9555 0.2951 -0.0000
vn -0.0000 -0.9754 -0.2205
vt 0.375000 0.250000
vt 0.125000 0.500000
vt 0.625000 0.250000
vt 0.875000 0.500000
vt 0.375000 0.500000
vt 0.625000 0.435714
vt 0.689286 0.500000
vt 0.625000 0.500000
vt 0.625000 0.435714
vt 0.689286 0.500000
vt 0.625000 0.750000
vt 0.625000 0.500000
vt 0.625000 0.435714
vt 0.689286 0.500000
vt 0.625000 0.814286
vt 0.689286 0.750000
vt 0.625000 0.750000
vt 0.625000 0.500000
vt 0.625000 0.435714
vt 0.689286 0.500000
vt 0.625000 0.814286
vt 0.689286 0.750000
vt 0.625000 0.750000
vt 0.625000 0.500000
vt 0.625000 0.435714
vt 0.689286 0.500000
vt 0.625000 0.814286
vt 0.689286 0.750000
vt 0.625000 0.750000
vt 0.625000 0.500000
vt 0.625000 0.435714
vt 0.689286 0.500000
vt 0.625000 0.814286
vt 0.689286 0.750000
vt 0.375000 0.000000
vt 0.125000 0.750000
vt 0.375000 1.000000
vt 0.375000 0.750000
vt 0.470313 0.000000
vt 0.470312 1.000000
vt 0.470312 0.750000
vt 0.625000 0.750000
vt 0.625000 0.814286
vt 0.689286 0.750000
vt 0.625000 0.750000
vt 0.625000 0.814286
vt 0.689286 0.750000
vt 0.625000 0.000000
vt 0.625000 1.000000
vt 0.875000 0.750000
vt 0.625000 0.750000
vt 0.470313 0.000000
vt 0.470312 1.000000
vt 0.470312 0.750000
vt 0.375000 0.500000
vt 0.625000 0.435714
vt 0.689286 0.500000
vt 0.625000 0.500000
vt 0.625000 0.435714
vt 0.689286 0.500000
vt 0.625000 0.750000
vt 0.625000 0.500000
vt 0.625000 0.435714
vt 0.689286 0.500000
vt 0.625000 0.814286
vt 0.689286 0.750000
vt 0.625000 0.750000
vt 0.625000 0.500000
vt 0.625000 0.435714
vt 0.689286 0.500000
vt 0.625000 0.814286
vt 0.689286 0.750000
vt 0.625000 0.750000
vt 0.625000 0.500000
vt 0.625000 0.435714
vt 0.689286 0.500000
vt 0.625000 0.814286
vt 0.689286 0.750000
vt 0.375000 0.750000
vt 0.470312 0.750000
vt 0.625000 0.750000
vt 0.625000 0.814286
vt 0.689286 0.750000
vt 0.625000 0.750000
vt 0.625000 0.814286
vt 0.689286 0.750000
vt 0.625000 0.750000
vt 0.470312 0.750000
vt 0.625000 0.750000
vt 0.625000 0.814286
vt 0.689286 0.750000
vt 0.625000 0.750000
vt 0.625000 0.814286
vt 0.689286 0.750000
vt 0.625000 0.750000
vt 0.625000 0.814286
vt 0.689286 0.750000
vt 0.625000 0.750000
vt 0.625000 0.814286
vt 0.689286 0.750000
vt 0.375000 0.000000
vt 0.125000 0.750000
vt 0.375000 1.000000
vt 0.375000 0.750000
vt 0.470313 0.000000
vt 0.470312 1.000000
vt 0.470312 0.750000
vt 0.625000 0.750000
vt 0.625000 0.814286
vt 0.689286 0.750000
vt 0.625000 0.750000
vt 0.625000 0.814286
vt 0.689286 0.750000
vt 0.625000 0.000000
vt 0.625000 1.000000
vt 0.875000 0.750000
vt 0.625000 0.750000
vt 0.470313 0.000000
vt 0.470312 1.000000
vt 0.470312 0.750000
vt 0.625000 0.750000
vt 0.625000 0.814286
vt 0.689286 0.750000
vt 0.625000 0.750000
vt 0.625000 0.814286
vt 0.689286 0.750000
vt 0.625000 0.750000
vt 0.625000 0.814286
vt 0.689286 0.750000
vt 0.375000 0.750000
vt 0.470312 0.750000
vt 0.625000 0.750000
vt 0.625000 0.814286
vt 0.689286 0.750000
vt 0.625000 0.750000
vt 0.625000 0.814286
vt 0.689286 0.750000
vt 0.625000 0.750000
vt 0.470312 0.750000
s 0
f 9/13/1 13/19/1 17/25/1 21/31/1 20/30/1 16/24/1 12/18/1 8/12/1 5/8/1 3/5/1 1/1/1 2/3/1 4/6/1 6/9/1
f 3/5/2 24/38/2 23/36/2 1/2/2
f 6/10/3 30/47/3 29/45/3 5/8/3 8/12/3 7/11/3 10/16/3 9/14/3
f 15/23/4 19/29/4 22/33/4 18/27/4 14/21/4 10/15/4 7/11/4 11/17/4
f 9/14/5 10/16/5 14/22/5 13/20/5
f 7/11/6 8/12/6 12/18/6 11/17/6
f 17/26/2 18/28/2 22/34/2 21/32/2
f 13/20/7 14/22/7 18/28/7 17/26/7
f 11/17/8 12/18/8 16/24/8 15/23/8
f 20/30/5 21/32/5 22/34/5 19/29/5
f 15/23/3 16/24/3 20/30/3 19/29/3
f 26/41/9 25/40/9 23/37/9 24/38/9
f 29/45/4 30/46/4 28/43/4 27/42/4
f 3/5/6 5/8/6 29/45/6 27/42/6 32/51/6 34/54/6 26/41/6 24/38/6
f 1/1/5 23/35/5 25/39/5 33/52/5 31/48/5 2/3/5
f 26/41/2 34/54/2 33/53/2 25/40/2
f 4/7/10 28/44/10 30/47/10 6/10/10
f 34/54/4 32/51/4 31/49/4 33/53/4
f 2/4/3 31/50/3 32/51/3 27/42/3 28/44/3 4/7/3
f 41/63/1 38/59/1 36/56/1 2/3/1 1/1/1 35/55/1 37/58/1 40/62/1 44/68/1 48/74/1 20/30/1 21/31/1 49/75/1 45/69/1
f 35/55/2 1/2/2 23/36/2 51/79/2
f 38/60/3 41/64/3 42/66/3 39/61/3 40/62/3 37/58/3 55/84/3 56/86/3
f 47/73/4 43/67/4 39/61/4 42/65/4 46/71/4 50/77/4 22/33/4 19/29/4
f 41/64/6 45/70/6 46/72/6 42/66/6
f 39/61/5 43/67/5 44/68/5 40/62/5
f 49/76/2 21/32/2 22/34/2 50/78/2
f 45/70/11 49/76/11 50/78/11 46/72/11
f 43/67/12 47/73/12 48/74/12 44/68/12
f 47/73/3 19/29/3 20/30/3 48/74/3
f 52/80/9 51/79/9 23/37/9 25/40/9
f 55/84/4 53/81/4 54/82/4 56/85/4
f 35/55/5 51/79/5 52/80/5 58/88/5 57/87/5 53/81/5 55/84/5 37/58/5
f 52/80/2 25/40/2 33/53/2 58/88/2
f 36/57/13 38/60/13 56/86/13 54/83/13
f 58/88/4 33/53/4 31/49/4 57/87/4
f 2/4/3 36/57/3 54/83/3 53/81/3 57/87/3 31/50/3
f 3/5/2 1/2/2 67/102/2 68/104/2
f 6/10/3 9/14/3 60/91/3 59/89/3 8/12/3 5/8/3 73/111/3 74/113/3
f 63/95/1 61/92/1 59/89/1 60/90/1 62/93/1 64/96/1 66/99/1 65/98/1
f 9/14/5 13/20/5 62/94/5 60/91/5
f 59/89/6 61/92/6 12/18/6 8/12/6
f 17/26/2 21/32/2 66/100/2 64/97/2
f 13/20/7 17/26/7 64/97/7 62/94/7
f 61/92/8 63/95/8 16/24/8 12/18/8
f 20/30/5 65/98/5 66/100/5 21/32/5
f 63/95/3 65/98/3 20/30/3 16/24/3
f 70/107/14 68/104/14 67/103/14 69/106/14
f 73/111/1 71/108/1 72/109/1 74/112/1
f 3/5/6 68/104/6 70/107/6 78/120/6 76/117/6 71/108/6 73/111/6 5/8/6
f 1/1/5 2/3/5 75/114/5 77/118/5 69/105/5 67/101/5
f 70/107/2 69/106/2 77/119/2 78/120/2
f 4/7/10 6/10/10 74/113/10 72/110/10
f 78/120/1 77/119/1 75/115/1 76/117/1
f 2/4/3 4/7/3 72/110/3 71/108/3 76/117/3 75/116/3
f 35/55/2 85/130/2 67/102/2 1/2/2
f 38/60/3 90/137/3 89/135/3 37/58/3 40/62/3 79/121/3 80/123/3 41/64/3
f 83/127/1 65/98/1 66/99/1 84/128/1 82/125/1 80/122/1 79/121/1 81/124/1
f 41/64/6 80/123/6 82/126/6 45/70/6
f 79/121/5 40/62/5 44/68/5 81/124/5
f 49/76/2 84/129/2 66/100/2 21/32/2
f 45/70/11 82/126/11 84/129/11 49/76/11
f 81/124/12 44/68/12 48/74/12 83/127/12
f 83/127/3 48/74/3 20/30/3 65/98/3
f 86/131/14 69/106/14 67/103/14 85/130/14
f 89/135/1 90/136/1 88/133/1 87/132/1
f 35/55/5 37/58/5 89/135/5 87/132/5 91/138/5 92/139/5 86/131/5 85/130/5
f 86/131/2 92/139/2 77/119/2 69/106/2
f 36/57/13 88/134/13 90/137/13 38/60/13
f 92/139/1 91/138/1 75/115/1 77/119/1
f 2/4/3 75/116/3 91/138/3 87/132/3 88/134/3 36/57/3
